<svg width="444" height="107" viewBox="0 0 444 107" fill="none" xmlns="http://www.w3.org/2000/svg">
<g filter="url(#filter0_ii_2_107)">
<path d="M11.6933 5.69704C151.898 4.76765 292.102 4.76765 432.307 5.69704C436.944 5.72847 441.372 10.6459 441.991 16.6774C444.67 42.8923 444.67 69.1071 441.991 95.3231C441.372 101.355 436.944 106.272 432.307 106.303C292.102 107.232 151.898 107.232 11.6933 106.303C7.0559 106.272 2.62866 101.355 2.00986 95.3231C-0.669952 69.1071 -0.669952 42.8923 2.00986 16.6774C2.62866 10.6459 7.0559 5.72847 11.6933 5.69704Z" fill="url(#paint0_linear_2_107)"/>
<path d="M11.6933 5.69704C151.898 4.76765 292.102 4.76765 432.307 5.69704C436.944 5.72847 441.372 10.6459 441.991 16.6774C444.67 42.8923 444.67 69.1071 441.991 95.3231C441.372 101.355 436.944 106.272 432.307 106.303C292.102 107.232 151.898 107.232 11.6933 106.303C7.0559 106.272 2.62866 101.355 2.00986 95.3231C-0.669952 69.1071 -0.669952 42.8923 2.00986 16.6774C2.62866 10.6459 7.0559 5.72847 11.6933 5.69704Z" fill="url(#paint1_linear_2_107)"/>
<path d="M11.6933 5.69704C151.898 4.76765 292.102 4.76765 432.307 5.69704C436.944 5.72847 441.372 10.6459 441.991 16.6774C444.67 42.8923 444.67 69.1071 441.991 95.3231C441.372 101.355 436.944 106.272 432.307 106.303C292.102 107.232 151.898 107.232 11.6933 106.303C7.0559 106.272 2.62866 101.355 2.00986 95.3231C-0.669952 69.1071 -0.669952 42.8923 2.00986 16.6774C2.62866 10.6459 7.0559 5.72847 11.6933 5.69704Z" fill="black" fill-opacity="0.24"/>
</g>
<g filter="url(#filter1_ii_2_107)">
<path d="M11.6933 0.697043C151.898 -0.232348 292.102 -0.232348 432.307 0.697043C436.944 0.728471 441.372 5.64593 441.991 11.6774C444.67 37.8923 444.67 64.1071 441.991 90.3231C441.372 96.3546 436.944 101.272 432.307 101.303C292.102 102.232 151.898 102.232 11.6933 101.303C7.0559 101.272 2.62866 96.3546 2.00986 90.3231C-0.669952 64.1071 -0.669952 37.8923 2.00986 11.6774C2.62866 5.64593 7.0559 0.728471 11.6933 0.697043Z" fill="url(#paint2_linear_2_107)"/>
<path d="M11.6933 0.697043C151.898 -0.232348 292.102 -0.232348 432.307 0.697043C436.944 0.728471 441.372 5.64593 441.991 11.6774C444.67 37.8923 444.67 64.1071 441.991 90.3231C441.372 96.3546 436.944 101.272 432.307 101.303C292.102 102.232 151.898 102.232 11.6933 101.303C7.0559 101.272 2.62866 96.3546 2.00986 90.3231C-0.669952 64.1071 -0.669952 37.8923 2.00986 11.6774C2.62866 5.64593 7.0559 0.728471 11.6933 0.697043Z" fill="url(#paint3_linear_2_107)"/>
</g>
<g filter="url(#filter2_i_2_107)">
<path d="M67.2698 46.65V57H64.9898V48.3H61.3598V57H59.0798V46.65H67.2698ZM71.5213 47.61C72.1713 46.84 73.3263 46.455 74.9863 46.455C76.6463 46.455 77.8013 46.84 78.4513 47.61C79.1013 48.37 79.4263 49.775 79.4263 51.825C79.4263 53.875 79.1013 55.285 78.4513 56.055C77.8013 56.815 76.6463 57.195 74.9863 57.195C73.3263 57.195 72.1713 56.815 71.5213 56.055C70.8813 55.285 70.5613 53.875 70.5613 51.825C70.5613 49.775 70.8813 48.37 71.5213 47.61ZM76.5763 49.035C76.2963 48.545 75.7663 48.3 74.9863 48.3C74.2063 48.3 73.6713 48.545 73.3813 49.035C73.1013 49.525 72.9613 50.455 72.9613 51.825C72.9613 53.195 73.1013 54.125 73.3813 54.615C73.6713 55.105 74.2063 55.35 74.9863 55.35C75.7663 55.35 76.2963 55.105 76.5763 54.615C76.8663 54.125 77.0113 53.195 77.0113 51.825C77.0113 50.455 76.8663 49.525 76.5763 49.035ZM90.5833 46.65V57H88.2883V48.3H86.9683C86.3783 48.3 86.0633 48.59 86.0233 49.17C85.8933 50.72 85.7683 51.9 85.6483 52.71C85.5383 53.52 85.3683 54.215 85.1383 54.795C84.5283 56.495 83.3833 57.245 81.7033 57.045L81.5383 55.275C81.9283 55.205 82.2383 55.09 82.4683 54.93C82.7083 54.77 82.8933 54.52 83.0233 54.18C83.2233 53.65 83.3783 53.01 83.4883 52.26C83.5983 51.5 83.7133 50.38 83.8333 48.9C83.9433 47.4 84.7533 46.65 86.2633 46.65H90.5833ZM101.994 46.65L99.4593 54.33C99.1593 55.24 98.8193 55.925 98.4393 56.385C98.0593 56.835 97.5293 57.09 96.8493 57.15C96.1693 57.21 95.3393 57.135 94.3593 56.925L94.6143 55.305C95.5843 55.355 96.1993 55.34 96.4593 55.26C96.7293 55.17 96.9593 54.88 97.1493 54.39L97.2693 54.06H96.7143C96.0443 54.06 95.5993 53.715 95.3793 53.025L93.2493 46.65H95.5893L97.2243 52.125C97.2543 52.245 97.3443 52.305 97.4943 52.305H97.8693L99.6543 46.65H101.994ZM112.296 46.65V57H110.016V52.71C108.946 53.23 107.891 53.49 106.851 53.49C105.961 53.49 105.301 53.29 104.871 52.89C104.451 52.48 104.241 51.845 104.241 50.985V46.65H106.521V50.49C106.511 50.88 106.591 51.155 106.761 51.315C106.931 51.475 107.236 51.555 107.676 51.555C108.446 51.555 109.226 51.4 110.016 51.09V46.65H112.296ZM124.465 57H122.275V50.82C122.275 50.36 122.32 49.895 122.41 49.425H122.305C122.155 49.885 121.96 50.34 121.72 50.79L118.225 57H115.96V46.65H118.135V52.725C118.135 53.155 118.095 53.635 118.015 54.165H118.105C118.235 53.785 118.435 53.335 118.705 52.815L122.2 46.65H124.465V57ZM135.789 48.51H132.699V57H130.404V48.51H127.314V46.65H135.789V48.51ZM140.913 50.49H142.443C143.863 50.49 144.843 50.73 145.383 51.21C145.933 51.69 146.208 52.565 146.208 53.835C146.208 55.085 145.953 55.945 145.443 56.415C144.933 56.885 144.063 57.12 142.833 57.12C141.023 57.12 139.643 57.08 138.693 57H138.633V46.65H140.913V50.49ZM140.913 55.35H142.443C143.053 55.35 143.448 55.25 143.628 55.05C143.818 54.84 143.913 54.41 143.913 53.76C143.913 53.11 143.818 52.67 143.628 52.44C143.448 52.21 143.053 52.095 142.443 52.095H140.913V55.35ZM161.149 55.065L161.344 56.76C160.444 57.04 159.339 57.18 158.029 57.18C156.429 57.18 155.304 56.78 154.654 55.98C154.004 55.18 153.679 53.795 153.679 51.825C153.679 49.855 154.004 48.47 154.654 47.67C155.304 46.87 156.429 46.47 158.029 46.47C159.189 46.47 160.224 46.585 161.134 46.815L160.939 48.525C160.129 48.475 159.159 48.45 158.029 48.45C157.279 48.45 156.764 48.69 156.484 49.17C156.214 49.64 156.079 50.525 156.079 51.825C156.079 53.125 156.214 54.015 156.484 54.495C156.764 54.965 157.279 55.2 158.029 55.2C159.419 55.2 160.459 55.155 161.149 55.065ZM172.008 48.51H168.918V57H166.623V48.51H163.533V46.65H172.008V48.51ZM174.837 57V46.65C175.767 46.56 177.082 46.515 178.782 46.515C180.222 46.515 181.207 46.75 181.737 47.22C182.277 47.69 182.547 48.58 182.547 49.89C182.547 51.2 182.292 52.095 181.782 52.575C181.282 53.045 180.382 53.28 179.082 53.28C178.422 53.28 177.772 53.24 177.132 53.16V57H174.837ZM177.132 51.525H178.722C179.322 51.515 179.727 51.4 179.937 51.18C180.147 50.96 180.252 50.53 180.252 49.89C180.252 49.25 180.147 48.82 179.937 48.6C179.727 48.38 179.322 48.27 178.722 48.27L177.132 48.285V51.525ZM190.663 54.285H187.108L186.358 57H184.018L187.003 47.25C187.043 47.07 187.138 46.925 187.288 46.815C187.438 46.705 187.608 46.65 187.798 46.65H189.958C190.388 46.65 190.653 46.85 190.753 47.25L193.738 57H191.413L190.663 54.285ZM190.168 52.515L189.298 49.35C189.178 48.85 189.108 48.525 189.088 48.375H188.683C188.663 48.475 188.628 48.635 188.578 48.855C188.528 49.075 188.488 49.24 188.458 49.35L187.588 52.515H190.168ZM203.154 48.51H200.064V57H197.769V48.51H194.679V46.65H203.154V48.51ZM212.868 55.215L212.958 56.895C212.028 56.995 210.428 57.045 208.158 57.045C207.468 57.045 206.918 56.86 206.508 56.49C206.098 56.11 205.893 55.6 205.893 54.96V48.69C205.893 48.05 206.098 47.545 206.508 47.175C206.928 46.795 207.478 46.605 208.158 46.605C210.428 46.605 212.028 46.655 212.958 46.755L212.868 48.45H208.878C208.628 48.45 208.448 48.51 208.338 48.63C208.228 48.75 208.173 48.945 208.173 49.215V50.79H212.298V52.44H208.173V54.435C208.173 54.715 208.228 54.915 208.338 55.035C208.448 55.155 208.628 55.215 208.878 55.215H212.868ZM216.11 57V48.81C216.11 48.16 216.315 47.63 216.725 47.22C217.135 46.81 217.655 46.605 218.285 46.605C220.445 46.605 221.975 46.66 222.875 46.77L222.77 48.45H219.215C218.925 48.45 218.715 48.515 218.585 48.645C218.465 48.765 218.405 48.975 218.405 49.275V57H216.11ZM234.158 57H231.968V50.82C231.968 50.36 232.013 49.895 232.103 49.425H231.998C231.848 49.885 231.653 50.34 231.413 50.79L227.918 57H225.653V46.65H227.828V52.725C227.828 53.155 227.788 53.635 227.708 54.165H227.798C227.928 53.785 228.128 53.335 228.398 52.815L231.893 46.65H234.158V57ZM240.112 50.82H242.032C242.122 49.17 242.477 48.03 243.097 47.4C243.717 46.77 244.742 46.455 246.172 46.455C247.822 46.455 248.972 46.84 249.622 47.61C250.272 48.37 250.597 49.775 250.597 51.825C250.597 53.875 250.272 55.285 249.622 56.055C248.972 56.815 247.822 57.195 246.172 57.195C244.692 57.195 243.642 56.855 243.022 56.175C242.412 55.495 242.077 54.26 242.017 52.47H240.112V57H237.817V46.65H240.112V50.82ZM246.172 55.35C246.942 55.35 247.467 55.105 247.747 54.615C248.027 54.125 248.172 53.195 248.182 51.825C248.172 50.455 248.027 49.525 247.747 49.035C247.467 48.545 246.942 48.3 246.172 48.3C245.422 48.3 244.912 48.545 244.642 49.035C244.382 49.525 244.252 50.455 244.252 51.825C244.252 53.195 244.382 54.125 244.642 54.615C244.912 55.105 245.422 55.35 246.172 55.35ZM266.82 46.65V57H264.54V48.3H260.91V57H258.63V46.65H266.82ZM270.471 57V46.65C271.401 46.56 272.716 46.515 274.416 46.515C275.856 46.515 276.841 46.75 277.371 47.22C277.911 47.69 278.181 48.58 278.181 49.89C278.181 51.2 277.926 52.095 277.416 52.575C276.916 53.045 276.016 53.28 274.716 53.28C274.056 53.28 273.406 53.24 272.766 53.16V57H270.471ZM272.766 51.525H274.356C274.956 51.515 275.361 51.4 275.571 51.18C275.781 50.96 275.886 50.53 275.886 49.89C275.886 49.25 275.781 48.82 275.571 48.6C275.361 48.38 274.956 48.27 274.356 48.27L272.766 48.285V51.525ZM281.814 47.61C282.464 46.84 283.619 46.455 285.279 46.455C286.939 46.455 288.094 46.84 288.744 47.61C289.394 48.37 289.719 49.775 289.719 51.825C289.719 53.875 289.394 55.285 288.744 56.055C288.094 56.815 286.939 57.195 285.279 57.195C283.619 57.195 282.464 56.815 281.814 56.055C281.174 55.285 280.854 53.875 280.854 51.825C280.854 49.775 281.174 48.37 281.814 47.61ZM286.869 49.035C286.589 48.545 286.059 48.3 285.279 48.3C284.499 48.3 283.964 48.545 283.674 49.035C283.394 49.525 283.254 50.455 283.254 51.825C283.254 53.195 283.394 54.125 283.674 54.615C283.964 55.105 284.499 55.35 285.279 55.35C286.059 55.35 286.589 55.105 286.869 54.615C287.159 54.125 287.304 53.195 287.304 51.825C287.304 50.455 287.159 49.525 286.869 49.035ZM300.656 59.265L300.476 57H293.621L293.441 59.265H291.821V55.35H292.916C293.626 53.58 294.076 51.4 294.266 48.81C294.316 48.16 294.556 47.64 294.986 47.25C295.416 46.85 295.981 46.65 296.681 46.65H300.926V55.35H302.276V59.265H300.656ZM298.646 55.35V48.3H297.311C297.011 48.3 296.791 48.37 296.651 48.51C296.521 48.64 296.446 48.865 296.426 49.185C296.306 50.635 296.146 51.825 295.946 52.755C295.746 53.685 295.451 54.55 295.061 55.35H298.646ZM310.936 51.6V51.66C311.706 51.73 312.251 51.995 312.571 52.455C312.901 52.905 313.066 53.56 313.066 54.42C313.066 55.46 312.801 56.17 312.271 56.55C311.741 56.93 310.841 57.12 309.571 57.12C307.661 57.12 306.201 57.08 305.191 57V46.65C306.091 46.57 307.391 46.53 309.091 46.53C310.461 46.53 311.411 46.72 311.941 47.1C312.471 47.47 312.736 48.18 312.736 49.23C312.736 49.98 312.596 50.55 312.316 50.94C312.036 51.32 311.576 51.54 310.936 51.6ZM307.426 50.88H309.106C309.656 50.88 310.031 50.79 310.231 50.61C310.441 50.43 310.546 50.075 310.546 49.545C310.546 49.025 310.436 48.68 310.216 48.51C310.006 48.34 309.591 48.255 308.971 48.255L307.426 48.24V50.88ZM307.426 55.395H309.166C309.806 55.395 310.236 55.305 310.456 55.125C310.676 54.935 310.786 54.555 310.786 53.985C310.786 53.365 310.671 52.95 310.441 52.74C310.211 52.52 309.771 52.405 309.121 52.395H307.426V55.395ZM324.791 57H322.601V50.82C322.601 50.36 322.646 49.895 322.736 49.425H322.631C322.481 49.885 322.286 50.34 322.046 50.79L318.551 57H316.286V46.65H318.461V52.725C318.461 53.155 318.421 53.635 318.341 54.165H318.431C318.561 53.785 318.761 53.335 319.031 52.815L322.526 46.65H324.791V57ZM337.645 51.57V51.63C338.555 51.75 339.19 52.105 339.55 52.695C339.92 53.285 340.405 54.565 341.005 56.535C341.075 56.735 341.125 56.89 341.155 57H338.755C338.125 55.08 337.725 53.93 337.555 53.55C337.265 52.95 336.92 52.6 336.52 52.5C336.39 52.46 336.245 52.44 336.085 52.44H335.395C335.475 52.81 335.515 53.14 335.515 53.43V57H333.325V53.43C333.325 53.14 333.365 52.81 333.445 52.44H332.71C332.16 52.44 331.75 52.68 331.48 53.16C331.21 53.63 330.815 54.66 330.295 56.25C330.195 56.57 330.115 56.82 330.055 57H327.655C328.255 55.05 328.665 53.845 328.885 53.385C329.235 52.615 329.69 52.11 330.25 51.87C330.5 51.76 330.805 51.68 331.165 51.63V51.57C330.915 51.54 330.685 51.485 330.475 51.405C330.275 51.325 330.1 51.24 329.95 51.15C329.8 51.06 329.655 50.915 329.515 50.715C329.375 50.515 329.255 50.34 329.155 50.19C329.065 50.03 328.955 49.78 328.825 49.44C328.705 49.09 328.605 48.8 328.525 48.57C328.455 48.33 328.345 47.965 328.195 47.475C328.085 47.115 328 46.84 327.94 46.65H330.265C330.805 48.35 331.175 49.395 331.375 49.785C331.785 50.425 332.23 50.765 332.71 50.805H333.445C333.365 50.375 333.325 49.965 333.325 49.575V46.65H335.515V49.575C335.515 49.965 335.475 50.375 335.395 50.805H336.07C336.6 50.805 337 50.56 337.27 50.07C337.54 49.58 337.91 48.61 338.38 47.16C338.45 46.94 338.505 46.77 338.545 46.65H340.87C340.32 48.41 339.965 49.47 339.805 49.83C339.465 50.6 339.025 51.105 338.485 51.345C338.245 51.455 337.965 51.53 337.645 51.57ZM350.897 55.215L350.987 56.895C350.057 56.995 348.457 57.045 346.187 57.045C345.497 57.045 344.947 56.86 344.537 56.49C344.127 56.11 343.922 55.6 343.922 54.96V48.69C343.922 48.05 344.127 47.545 344.537 47.175C344.957 46.795 345.507 46.605 346.187 46.605C348.457 46.605 350.057 46.655 350.987 46.755L350.897 48.45H346.907C346.657 48.45 346.477 48.51 346.367 48.63C346.257 48.75 346.202 48.945 346.202 49.215V50.79H350.327V52.44H346.202V54.435C346.202 54.715 346.257 54.915 346.367 55.035C346.477 55.155 346.657 55.215 346.907 55.215H350.897ZM362.404 46.65V57H360.109V52.38H356.464V57H354.184V46.65H356.464V50.61H360.109V46.65H362.404ZM374.575 57H372.385V50.82C372.385 50.36 372.43 49.895 372.52 49.425H372.415C372.265 49.885 372.07 50.34 371.83 50.79L368.335 57H366.07V46.65H368.245V52.725C368.245 53.155 368.205 53.635 368.125 54.165H368.215C368.345 53.785 368.545 53.335 368.815 52.815L372.31 46.65H374.575V57ZM385.614 57H383.334V53.025H381.819C381.239 53.025 380.884 53.32 380.754 53.91L379.989 57H377.589L378.429 53.835C378.629 52.975 379.149 52.465 379.989 52.305L379.974 52.215C379.264 52.125 378.754 51.865 378.444 51.435C378.144 50.995 377.994 50.375 377.994 49.575C377.994 48.455 378.279 47.665 378.849 47.205C379.429 46.745 380.384 46.515 381.714 46.515C383.394 46.515 384.694 46.56 385.614 46.65V57ZM383.334 51.27V48.285L381.774 48.27C381.204 48.27 380.814 48.37 380.604 48.57C380.404 48.77 380.299 49.155 380.289 49.725C380.289 50.295 380.394 50.695 380.604 50.925C380.824 51.155 381.214 51.27 381.774 51.27H383.334Z" fill="white"/>
</g>
<defs>
<filter id="filter0_ii_2_107" x="-4" y="1" width="451" height="109" filterUnits="userSpaceOnUse" color-interpolation-filters="sRGB">
<feFlood flood-opacity="0" result="BackgroundImageFix"/>
<feBlend mode="normal" in="SourceGraphic" in2="BackgroundImageFix" result="shape"/>
<feColorMatrix in="SourceAlpha" type="matrix" values="0 0 0 0 0 0 0 0 0 0 0 0 0 0 0 0 0 0 127 0" result="hardAlpha"/>
<feOffset dx="3" dy="3"/>
<feGaussianBlur stdDeviation="4"/>
<feComposite in2="hardAlpha" operator="arithmetic" k2="-1" k3="1"/>
<feColorMatrix type="matrix" values="0 0 0 0 1 0 0 0 0 1 0 0 0 0 1 0 0 0 0.12 0"/>
<feBlend mode="normal" in2="shape" result="effect1_innerShadow_2_107"/>
<feColorMatrix in="SourceAlpha" type="matrix" values="0 0 0 0 0 0 0 0 0 0 0 0 0 0 0 0 0 0 127 0" result="hardAlpha"/>
<feOffset dx="-4" dy="-4"/>
<feGaussianBlur stdDeviation="4"/>
<feComposite in2="hardAlpha" operator="arithmetic" k2="-1" k3="1"/>
<feColorMatrix type="matrix" values="0 0 0 0 1 0 0 0 0 1 0 0 0 0 1 0 0 0 0.12 0"/>
<feBlend mode="normal" in2="effect1_innerShadow_2_107" result="effect2_innerShadow_2_107"/>
</filter>
<filter id="filter1_ii_2_107" x="-5" y="-2" width="456" height="112" filterUnits="userSpaceOnUse" color-interpolation-filters="sRGB">
<feFlood flood-opacity="0" result="BackgroundImageFix"/>
<feBlend mode="normal" in="SourceGraphic" in2="BackgroundImageFix" result="shape"/>
<feColorMatrix in="SourceAlpha" type="matrix" values="0 0 0 0 0 0 0 0 0 0 0 0 0 0 0 0 0 0 127 0" result="hardAlpha"/>
<feOffset dx="-5" dy="-2"/>
<feGaussianBlur stdDeviation="4"/>
<feComposite in2="hardAlpha" operator="arithmetic" k2="-1" k3="1"/>
<feColorMatrix type="matrix" values="0 0 0 0 1 0 0 0 0 1 0 0 0 0 1 0 0 0 0.12 0"/>
<feBlend mode="normal" in2="shape" result="effect1_innerShadow_2_107"/>
<feColorMatrix in="SourceAlpha" type="matrix" values="0 0 0 0 0 0 0 0 0 0 0 0 0 0 0 0 0 0 127 0" result="hardAlpha"/>
<feOffset dx="7" dy="8"/>
<feGaussianBlur stdDeviation="4"/>
<feComposite in2="hardAlpha" operator="arithmetic" k2="-1" k3="1"/>
<feColorMatrix type="matrix" values="0 0 0 0 1 0 0 0 0 1 0 0 0 0 1 0 0 0 0.09 0"/>
<feBlend mode="normal" in2="effect1_innerShadow_2_107" result="effect2_innerShadow_2_107"/>
</filter>
<filter id="filter2_i_2_107" x="59.0798" y="46.4551" width="327.034" height="13.3098" filterUnits="userSpaceOnUse" color-interpolation-filters="sRGB">
<feFlood flood-opacity="0" result="BackgroundImageFix"/>
<feBlend mode="normal" in="SourceGraphic" in2="BackgroundImageFix" result="shape"/>
<feColorMatrix in="SourceAlpha" type="matrix" values="0 0 0 0 0 0 0 0 0 0 0 0 0 0 0 0 0 0 127 0" result="hardAlpha"/>
<feOffset dx="0.5" dy="0.5"/>
<feGaussianBlur stdDeviation="0.5"/>
<feComposite in2="hardAlpha" operator="arithmetic" k2="-1" k3="1"/>
<feColorMatrix type="matrix" values="0 0 0 0 0 0 0 0 0 0 0 0 0 0 0 0 0 0 0.15 0"/>
<feBlend mode="normal" in2="shape" result="effect1_innerShadow_2_107"/>
</filter>
<linearGradient id="paint0_linear_2_107" x1="426.572" y1="93.6961" x2="357.508" y2="-67.8126" gradientUnits="userSpaceOnUse">
<stop stop-color="#EB235F"/>
<stop offset="1" stop-color="#FF134C"/>
</linearGradient>
<linearGradient id="paint1_linear_2_107" x1="-33.8747" y1="-135.989" x2="129.628" y2="102.651" gradientUnits="userSpaceOnUse">
<stop stop-color="#FF88A5"/>
<stop offset="1" stop-color="#FF8888" stop-opacity="0"/>
</linearGradient>
<linearGradient id="paint2_linear_2_107" x1="426.572" y1="88.6961" x2="357.508" y2="-72.8126" gradientUnits="userSpaceOnUse">
<stop stop-color="#EB235F"/>
<stop offset="1" stop-color="#FF134C"/>
</linearGradient>
<linearGradient id="paint3_linear_2_107" x1="-33.8747" y1="-140.989" x2="129.628" y2="97.6506" gradientUnits="userSpaceOnUse">
<stop stop-color="#FF88A5"/>
<stop offset="1" stop-color="#FF8888" stop-opacity="0"/>
</linearGradient>
</defs>
</svg>
