<svg width="200" height="49" viewBox="0 0 200 49" fill="none" xmlns="http://www.w3.org/2000/svg"><path d="M109.618 24.305c-.774 0-1.496.615-1.6 1.384l-.928 5.179c-.774-.513-1.703-.77-2.735-.77h-1.806c-3.096 0-6.088 2.513-6.604 5.59l-.929 5.179c-.567 3.076 1.548 5.589 4.644 5.589h1.806c1.083 0 2.167-.308 3.147-.872.103.513.568.872 1.135.872.774 0 1.496-.615 1.6-1.385l.774-4.204.928-5.179 1.755-9.999c.103-.769-.413-1.384-1.187-1.384zm-3.405 11.332l-.929 5.179c-.258 1.59-1.806 2.871-3.405 2.871h-1.755c-1.6 0-2.631-1.282-2.373-2.871l.929-5.18c.258-1.589 1.805-2.87 3.405-2.87h1.806c1.548 0 2.631 1.332 2.322 2.87z" fill="#fff"/><path d="M109.618 24.305c-.774 0-1.496.615-1.6 1.384l-.928 5.179c-.774-.513-1.703-.77-2.735-.77h-1.806c-3.096 0-6.088 2.513-6.604 5.59l-.929 5.179c-.567 3.076 1.548 5.589 4.644 5.589h1.806c1.083 0 2.167-.308 3.147-.872.103.513.568.872 1.135.872.774 0 1.496-.615 1.6-1.385l.774-4.204.928-5.179 1.755-9.999c.103-.769-.413-1.384-1.187-1.384zm-3.405 11.332l-.929 5.179c-.258 1.59-1.806 2.871-3.405 2.871h-1.755c-1.6 0-2.631-1.282-2.373-2.871l.929-5.18c.258-1.589 1.805-2.87 3.405-2.87h1.806c1.548 0 2.631 1.332 2.322 2.87z" fill="url(#paint0_linear_2621_2)"/><path d="M134.228 30.047h-1.806c-3.096 0-6.088 2.513-6.604 5.59l-.929 5.178c-.567 3.077 1.548 5.59 4.644 5.59h1.806c3.095 0 6.088-2.513 6.604-5.59l.929-5.178c.516-3.077-1.548-5.59-4.644-5.59zm1.858 5.59l-.929 5.178c-.258 1.59-1.806 2.872-3.406 2.872h-1.805c-1.6 0-2.632-1.282-2.374-2.872l.929-5.178c.258-1.59 1.806-2.872 3.405-2.872h1.806c1.6 0 2.683 1.333 2.374 2.871z" fill="#fff"/><path d="M134.228 30.047h-1.806c-3.096 0-6.088 2.513-6.604 5.59l-.929 5.178c-.567 3.077 1.548 5.59 4.644 5.59h1.806c3.095 0 6.088-2.513 6.604-5.59l.929-5.178c.516-3.077-1.548-5.59-4.644-5.59zm1.858 5.59l-.929 5.178c-.258 1.59-1.806 2.872-3.406 2.872h-1.805c-1.6 0-2.632-1.282-2.374-2.872l.929-5.178c.258-1.59 1.806-2.872 3.405-2.872h1.806c1.6 0 2.683 1.333 2.374 2.871z" fill="url(#paint1_linear_2621_2)"/><path d="M119.574 30.047h-1.806c-3.096 0-6.088 2.513-6.604 5.59l-.929 5.178c-.567 3.077 1.548 5.59 4.644 5.59h1.806c1.341 0 2.683-.462 3.818-1.282.67-.462.877-1.334.516-1.898-.362-.564-1.239-.666-1.909-.154-.568.41-1.29.667-1.961.667h-1.806c-1.599 0-2.631-1.282-2.373-2.871l.051-.41c.774.512 1.703.768 2.735.768h1.806c3.095 0 6.088-2.512 6.604-5.589.516-3.076-1.496-5.589-4.592-5.589zm1.857 5.59c-.258 1.589-1.805 2.87-3.405 2.87h-1.806c-1.599 0-2.631-1.281-2.373-2.87.258-1.59 1.806-2.872 3.405-2.872h1.806c1.599 0 2.683 1.333 2.373 2.871z" fill="#fff"/><path d="M119.574 30.047h-1.806c-3.096 0-6.088 2.513-6.604 5.59l-.929 5.178c-.567 3.077 1.548 5.59 4.644 5.59h1.806c1.341 0 2.683-.462 3.818-1.282.67-.462.877-1.334.516-1.898-.362-.564-1.239-.666-1.909-.154-.568.41-1.29.667-1.961.667h-1.806c-1.599 0-2.631-1.282-2.373-2.871l.051-.41c.774.512 1.703.768 2.735.768h1.806c3.095 0 6.088-2.512 6.604-5.589.516-3.076-1.496-5.589-4.592-5.589zm1.857 5.59c-.258 1.589-1.805 2.87-3.405 2.87h-1.806c-1.599 0-2.631-1.281-2.373-2.87.258-1.59 1.806-2.872 3.405-2.872h1.806c1.599 0 2.683 1.333 2.373 2.871z" fill="url(#paint2_linear_2621_2)"/><path d="M89.546 30.15c-.671-.307-1.497.051-1.91.77l-6.191 10.51-2.425-10.51c-.155-.719-.877-1.026-1.651-.77-.774.308-1.238 1.077-1.084 1.795l3.148 13.64c0 .05.051.102.051.153v.051c0 .052.052.103.104.154.051.052.051.103.103.103v.051c.051.051.103.051.103.103.052.05.103.05.155.102h.103c.051 0 .051.051.103.051s.103.052.155.052h.464c.052 0 .103 0 .207-.052.051 0 .103 0 .103-.05h.103c.052-.052.103-.052.155-.103.051-.052.103-.052.155-.103l.051-.051c.052-.051.103-.103.155-.103l.155-.154.051-.05c.052-.052.104-.103.104-.155l7.997-13.64c.361-.717.155-1.486-.465-1.794z" fill="#fff"/><path d="M89.546 30.15c-.671-.307-1.497.051-1.91.77l-6.191 10.51-2.425-10.51c-.155-.719-.877-1.026-1.651-.77-.774.308-1.238 1.077-1.084 1.795l3.148 13.64c0 .05.051.102.051.153v.051c0 .052.052.103.104.154.051.052.051.103.103.103v.051c.051.051.103.051.103.103.052.05.103.05.155.102h.103c.051 0 .051.051.103.051s.103.052.155.052h.464c.052 0 .103 0 .207-.052.051 0 .103 0 .103-.05h.103c.052-.052.103-.052.155-.103.051-.052.103-.052.155-.103l.051-.051c.052-.051.103-.103.155-.103l.155-.154.051-.05c.052-.052.104-.103.104-.155l7.997-13.64c.361-.717.155-1.486-.465-1.794z" fill="url(#paint3_linear_2621_2)"/><path d="M92.386 35.637c-.774 0-1.497.615-1.6 1.384l-1.445 8.05c-.154.77.362 1.385 1.136 1.385.773 0 1.496-.615 1.599-1.385l1.445-8.05c.154-.769-.362-1.384-1.135-1.384z" fill="#fff"/><path d="M92.386 35.637c-.774 0-1.497.615-1.6 1.384l-1.445 8.05c-.154.77.362 1.385 1.136 1.385.773 0 1.496-.615 1.599-1.385l1.445-8.05c.154-.769-.362-1.384-1.135-1.384z" fill="url(#paint4_linear_2621_2)"/><path d="M93.416 30.047c-.774 0-1.497.616-1.6 1.385l-.258 1.436c-.155.769.361 1.384 1.135 1.384s1.496-.615 1.6-1.385l.258-1.435c.103-.77-.413-1.385-1.135-1.385z" fill="#fff"/><path d="M93.416 30.047c-.774 0-1.497.616-1.6 1.385l-.258 1.436c-.155.769.361 1.384 1.135 1.384s1.496-.615 1.6-1.385l.258-1.435c.103-.77-.413-1.385-1.135-1.385z" fill="url(#paint5_linear_2621_2)"/><path d="M11.172 5.794H9.366c-1.083 0-2.167.308-3.147.872-.103-.513-.568-.872-1.135-.872-.774 0-1.496.616-1.6 1.385l-.774 4.204-.877 5.18L.027 26.56c-.154.77.362 1.385 1.136 1.385.774 0 1.496-.616 1.599-1.385l.929-5.179c.774.513 1.702.77 2.734.77h1.806c3.096 0 6.088-2.513 6.604-5.59l.93-5.179c.567-3.127-1.497-5.589-4.593-5.589zm1.858 5.538l-.93 5.18c-.257 1.589-1.805 2.87-3.404 2.87H6.89c-1.6 0-2.632-1.281-2.374-2.87l.929-5.18c.258-1.59 1.806-2.871 3.405-2.871h1.806c1.6.051 2.683 1.333 2.374 2.871z" fill="#fff"/><path d="M11.172 5.794H9.366c-1.083 0-2.167.308-3.147.872-.103-.513-.568-.872-1.135-.872-.774 0-1.496.616-1.6 1.385l-.774 4.204-.877 5.18L.027 26.56c-.154.77.362 1.385 1.136 1.385.774 0 1.496-.616 1.599-1.385l.929-5.179c.774.513 1.702.77 2.734.77h1.806c3.096 0 6.088-2.513 6.604-5.59l.93-5.179c.567-3.127-1.497-5.589-4.593-5.589zm1.858 5.538l-.93 5.18c-.257 1.589-1.805 2.87-3.404 2.87H6.89c-1.6 0-2.632-1.281-2.374-2.87l.929-5.18c.258-1.59 1.806-2.871 3.405-2.871h1.806c1.6.051 2.683 1.333 2.374 2.871z" fill="url(#paint6_linear_2621_2)"/><path d="M62.045 0c-.774 0-1.496.615-1.6 1.384l-.928 5.18c-.774-.513-1.703-.77-2.735-.77h-1.806c-3.096 0-6.088 2.513-6.604 5.59l-.929 5.178c-.567 3.077 1.548 5.59 4.644 5.59h1.806c1.083 0 2.167-.308 3.147-.873.103.513.568.872 1.135.872.774 0 1.497-.615 1.6-1.384l.774-4.205.928-5.179 1.755-9.999C63.335.615 62.819 0 62.045 0zM58.64 11.332l-.93 5.179c-.257 1.59-1.805 2.871-3.404 2.871H52.5c-1.6 0-2.632-1.282-2.374-2.871l.98-5.179c.259-1.59 1.806-2.871 3.406-2.871h1.806c1.548.05 2.631 1.333 2.322 2.871z" fill="#fff"/><path d="M62.045 0c-.774 0-1.496.615-1.6 1.384l-.928 5.18c-.774-.513-1.703-.77-2.735-.77h-1.806c-3.096 0-6.088 2.513-6.604 5.59l-.929 5.178c-.567 3.077 1.548 5.59 4.644 5.59h1.806c1.083 0 2.167-.308 3.147-.873.103.513.568.872 1.135.872.774 0 1.497-.615 1.6-1.384l.774-4.205.928-5.179 1.755-9.999C63.335.615 62.819 0 62.045 0zM58.64 11.332l-.93 5.179c-.257 1.59-1.805 2.871-3.404 2.871H52.5c-1.6 0-2.632-1.282-2.374-2.871l.98-5.179c.259-1.59 1.806-2.871 3.406-2.871h1.806c1.548.05 2.631 1.333 2.322 2.871z" fill="url(#paint7_linear_2621_2)"/><path d="M41.561 5.794h-1.806c-3.096 0-6.088 2.513-6.604 5.59l-.929 5.178c-.567 3.077 1.548 5.59 4.644 5.59h1.806c3.095 0 6.088-2.513 6.604-5.59l.929-5.179c.516-3.127-1.548-5.589-4.644-5.589zm1.909 5.538l-.929 5.18c-.258 1.589-1.805 2.87-3.405 2.87H37.33c-1.6 0-2.631-1.281-2.373-2.87l.928-5.18c.258-1.59 1.806-2.871 3.406-2.871h1.806c1.547.051 2.631 1.333 2.373 2.871z" fill="#fff"/><path d="M41.561 5.794h-1.806c-3.096 0-6.088 2.513-6.604 5.59l-.929 5.178c-.567 3.077 1.548 5.59 4.644 5.59h1.806c3.095 0 6.088-2.513 6.604-5.59l.929-5.179c.516-3.127-1.548-5.589-4.644-5.589zm1.909 5.538l-.929 5.18c-.258 1.589-1.805 2.87-3.405 2.87H37.33c-1.6 0-2.631-1.281-2.373-2.87l.928-5.18c.258-1.59 1.806-2.871 3.406-2.871h1.806c1.547.051 2.631 1.333 2.373 2.871z" fill="url(#paint8_linear_2621_2)"/><path d="M26.343 5.794h-1.806c-1.083 0-2.167.308-3.147.872-.103-.513-.568-.872-1.135-.872-.774 0-1.496.616-1.6 1.385l-2.425 13.64c-.154.768.361 1.384 1.135 1.384s1.497-.616 1.6-1.385l1.65-9.435c.259-1.589 1.807-2.87 3.406-2.87h1.806c1.6 0 2.631 1.281 2.373 2.87-.154.77.362 1.385 1.136 1.385.774 0 1.496-.615 1.6-1.385.618-3.127-1.497-5.589-4.593-5.589z" fill="#fff"/><path d="M26.343 5.794h-1.806c-1.083 0-2.167.308-3.147.872-.103-.513-.568-.872-1.135-.872-.774 0-1.496.616-1.6 1.385l-2.425 13.64c-.154.768.361 1.384 1.135 1.384s1.497-.616 1.6-1.385l1.65-9.435c.259-1.589 1.807-2.87 3.406-2.87h1.806c1.6 0 2.631 1.281 2.373 2.87-.154.77.362 1.385 1.136 1.385.774 0 1.496-.615 1.6-1.385.618-3.127-1.497-5.589-4.593-5.589z" fill="url(#paint9_linear_2621_2)"/><path d="M103.428 22.151h2.321a1.384 1.384 0 100-2.768h-1.857c-1.599 0-2.631-1.282-2.373-2.872l.051-.41c.774.513 1.703.77 2.735.77h1.806c3.095 0 6.088-2.513 6.604-5.59.567-3.077-1.548-5.59-4.644-5.59h-1.806c-3.095 0-6.088 2.513-6.604 5.59l-.929 5.179c-.464 3.179 1.6 5.691 4.696 5.691zm-.929-10.819c.258-1.59 1.806-2.871 3.405-2.871h1.806c1.6 0 2.631 1.282 2.373 2.871-.258 1.59-1.805 2.872-3.405 2.872h-1.806c-1.599 0-2.683-1.282-2.373-2.872z" fill="#fff"/><path d="M103.428 22.151h2.321a1.384 1.384 0 100-2.768h-1.857c-1.599 0-2.631-1.282-2.373-2.872l.051-.41c.774.513 1.703.77 2.735.77h1.806c3.095 0 6.088-2.513 6.604-5.59.567-3.077-1.548-5.59-4.644-5.59h-1.806c-3.095 0-6.088 2.513-6.604 5.59l-.929 5.179c-.464 3.179 1.6 5.691 4.696 5.691zm-.929-10.819c.258-1.59 1.806-2.871 3.405-2.871h1.806c1.6 0 2.631 1.282 2.373 2.871-.258 1.59-1.805 2.872-3.405 2.872h-1.806c-1.599 0-2.683-1.282-2.373-2.872z" fill="url(#paint10_linear_2621_2)"/><path d="M83.406 22.151c.774 0 1.496-.615 1.6-1.384l1.65-9.435c.258-1.59 1.806-2.872 3.406-2.872h1.806c1.599 0 2.63 1.282 2.373 2.872l-1.651 9.434c-.155.77.361 1.385 1.135 1.385s1.496-.615 1.6-1.384l1.65-9.435c.568-3.077-1.547-5.59-4.643-5.59h-1.806c-1.084 0-2.167.308-3.147.872-.104-.512-.568-.871-1.135-.871-.774 0-1.497.615-1.6 1.384l-2.425 13.64c-.051.769.465 1.384 1.187 1.384z" fill="#fff"/><path d="M83.406 22.151c.774 0 1.496-.615 1.6-1.384l1.65-9.435c.258-1.59 1.806-2.872 3.406-2.872h1.806c1.599 0 2.63 1.282 2.373 2.872l-1.651 9.434c-.155.77.361 1.385 1.135 1.385s1.496-.615 1.6-1.384l1.65-9.435c.568-3.077-1.547-5.59-4.643-5.59h-1.806c-1.084 0-2.167.308-3.147.872-.104-.512-.568-.871-1.135-.871-.774 0-1.497.615-1.6 1.384l-2.425 13.64c-.051.769.465 1.384 1.187 1.384z" fill="url(#paint11_linear_2621_2)"/><path d="M126.281 20.767l1.652-9.435c.257-1.59 1.805-2.872 3.405-2.872h1.806c1.599 0 2.631 1.282 2.373 2.872l-1.651 9.434c-.155.77.361 1.385 1.135 1.385s1.496-.615 1.6-1.384l1.651-9.435c.567-3.077-1.548-5.59-4.644-5.59h-1.806c-1.702 0-3.354.77-4.592 1.95-.825-1.18-2.218-1.95-3.921-1.95h-1.806c-1.083 0-2.167.308-3.147.872-.103-.512-.568-.871-1.135-.871-.774 0-1.497.615-1.6 1.384l-2.425 13.64c-.155.769.361 1.384 1.135 1.384s1.497-.615 1.6-1.384l1.651-9.435c.258-1.59 1.806-2.872 3.405-2.872h1.806c1.599 0 2.631 1.282 2.373 2.872l-1.651 9.434c-.155.77.361 1.385 1.135 1.385.826 0 1.548-.615 1.651-1.384z" fill="#fff"/><path d="M126.281 20.767l1.652-9.435c.257-1.59 1.805-2.872 3.405-2.872h1.806c1.599 0 2.631 1.282 2.373 2.872l-1.651 9.434c-.155.77.361 1.385 1.135 1.385s1.496-.615 1.6-1.384l1.651-9.435c.567-3.077-1.548-5.59-4.644-5.59h-1.806c-1.702 0-3.354.77-4.592 1.95-.825-1.18-2.218-1.95-3.921-1.95h-1.806c-1.083 0-2.167.308-3.147.872-.103-.512-.568-.871-1.135-.871-.774 0-1.497.615-1.6 1.384l-2.425 13.64c-.155.769.361 1.384 1.135 1.384s1.497-.615 1.6-1.384l1.651-9.435c.258-1.59 1.806-2.872 3.405-2.872h1.806c1.599 0 2.631 1.282 2.373 2.872l-1.651 9.434c-.155.77.361 1.385 1.135 1.385.826 0 1.548-.615 1.651-1.384z" fill="url(#paint12_linear_2621_2)"/><path d="M77.01 5.845c-.671-.307-1.497.052-1.91.77l-6.19 10.511-2.426-10.511c-.155-.718-.877-1.026-1.651-.77-.774.308-1.238 1.077-1.084 1.795l3.148 13.64c0 .05.051.102.051.153v.052c0 .05.052.102.104.154.051.05.051.102.103.102v.051c.051.052.103.052.103.103.052.051.103.051.155.102h.103c.052 0 .052.052.103.052.052 0 .103.051.155.051h.464c.052 0 .103 0 .207-.051.051 0 .103 0 .103-.052h.103c.052-.05.103-.05.155-.102.052-.051.103-.051.155-.103l.051-.051c.052-.051.103-.102.155-.102l.155-.154.051-.052c.052-.05.104-.102.104-.153l7.997-13.64c.413-.666.206-1.487-.464-1.795z" fill="#fff"/><path d="M77.01 5.845c-.671-.307-1.497.052-1.91.77l-6.19 10.511-2.426-10.511c-.155-.718-.877-1.026-1.651-.77-.774.308-1.238 1.077-1.084 1.795l3.148 13.64c0 .05.051.102.051.153v.052c0 .05.052.102.104.154.051.05.051.102.103.102v.051c.051.052.103.052.103.103.052.051.103.051.155.102h.103c.052 0 .052.052.103.052.052 0 .103.051.155.051h.464c.052 0 .103 0 .207-.051.051 0 .103 0 .103-.052h.103c.052-.05.103-.05.155-.102.052-.051.103-.051.155-.103l.051-.051c.052-.051.103-.102.155-.102l.155-.154.051-.052c.052-.05.104-.102.104-.153l7.997-13.64c.413-.666.206-1.487-.464-1.795z" fill="url(#paint13_linear_2621_2)"/><path d="M77.988 22.15c.774 0 1.496-.614 1.6-1.384l1.547-8.614c.155-.77-.361-1.384-1.135-1.384s-1.496.615-1.6 1.384l-1.547 8.614c-.155.77.36 1.385 1.135 1.385z" fill="#fff"/><path d="M77.988 22.15c.774 0 1.496-.614 1.6-1.384l1.547-8.614c.155-.77-.361-1.384-1.135-1.384s-1.496.615-1.6 1.384l-1.547 8.614c-.155.77.36 1.385 1.135 1.385z" fill="url(#paint14_linear_2621_2)"/><path d="M80.155 9.897c.774 0 1.496-.616 1.6-1.385l.258-1.436c.154-.769-.362-1.384-1.136-1.384-.773 0-1.496.615-1.6 1.384l-.257 1.436c-.155.82.361 1.385 1.135 1.385z" fill="#fff"/><path d="M80.155 9.897c.774 0 1.496-.616 1.6-1.385l.258-1.436c.154-.769-.362-1.384-1.136-1.384-.773 0-1.496.615-1.6 1.384l-.257 1.436c-.155.82.361 1.385 1.135 1.385z" fill="url(#paint15_linear_2621_2)"/><path d="M141.399 20.254c0-.102-.052-.153-.103-.256-.052-.051-.103-.154-.155-.205l-.155-.154a.391.391 0 00-.206-.102c-.052-.052-.155-.052-.258-.103a.884.884 0 00-.516 0 .394.394 0 00-.258.102c-.103.052-.155.052-.258.103-.103.051-.155.103-.258.154l-.206.205a1.085 1.085 0 00-.155.256c-.052.103-.103.154-.103.257-.052.102-.052.154-.052.256v.256c0 .103 0 .154.052.257 0 .102.051.154.103.256.051.052.103.154.155.205l.154.154a.394.394 0 00.207.103c.051.051.154.051.258.102.103 0 .154.052.258.052.361 0 .722-.154 1.032-.41l.206-.206c.052-.051.103-.154.155-.256.051-.103.103-.154.103-.257.052-.102.052-.153.052-.256v-.256c0-.103 0-.154-.052-.257z" fill="#fff"/><path d="M141.399 20.254c0-.102-.052-.153-.103-.256-.052-.051-.103-.154-.155-.205l-.155-.154a.391.391 0 00-.206-.102c-.052-.052-.155-.052-.258-.103a.884.884 0 00-.516 0 .394.394 0 00-.258.102c-.103.052-.155.052-.258.103-.103.051-.155.103-.258.154l-.206.205a1.085 1.085 0 00-.155.256c-.052.103-.103.154-.103.257-.052.102-.052.154-.052.256v.256c0 .103 0 .154.052.257 0 .102.051.154.103.256.051.052.103.154.155.205l.154.154a.394.394 0 00.207.103c.051.051.154.051.258.102.103 0 .154.052.258.052.361 0 .722-.154 1.032-.41l.206-.206c.052-.051.103-.154.155-.256.051-.103.103-.154.103-.257.052-.102.052-.153.052-.256v-.256c0-.103 0-.154-.052-.257z" fill="url(#paint16_linear_2621_2)"/><path opacity=".3" d="M154.051 48.405a6.48 6.48 0 01-3.457-.975c-2.012-1.282-2.941-3.589-2.476-6.204l5.366-30.1c.464-2.563 2.218-4.87 4.643-6.152 2.477-1.282 5.16-1.333 7.172-.051l24.353 15.075c2.064 1.281 3.044 3.64 2.58 6.255-.464 2.615-2.27 4.974-4.799 6.256l-29.719 15.024a8.361 8.361 0 01-3.663.872zm7.327-41.124a4.39 4.39 0 00-2.064.513c-1.342.718-2.27 1.948-2.477 3.333l-5.366 30.099c-.258 1.384.258 2.615 1.342 3.333.516.359 1.186.513 1.857.513s1.342-.154 1.961-.513l29.719-15.024c1.341-.667 2.322-1.948 2.58-3.333.258-1.384-.258-2.666-1.393-3.333L163.235 7.794c-.567-.359-1.187-.513-1.857-.513z" fill="url(#paint17_linear_2621_2)"/><path opacity=".6" d="M157.406 48.405a6.48 6.48 0 01-3.457-.975c-2.012-1.282-2.941-3.589-2.477-6.204l5.366-30.1c.465-2.563 2.219-4.87 4.644-6.152 2.476-1.282 5.159-1.333 7.172-.051l24.353 15.075c2.064 1.281 3.044 3.64 2.58 6.255-.465 2.615-2.271 4.974-4.799 6.256l-29.719 15.024c-1.187.564-2.476.872-3.663.872zm7.326-41.124c-.67 0-1.393.154-2.063.513-1.342.718-2.271 1.948-2.477 3.333l-5.366 30.099c-.258 1.384.258 2.615 1.342 3.333.515.359 1.186.513 1.857.513a3.87 3.87 0 001.961-.513l29.719-15.024c1.341-.667 2.322-1.948 2.579-3.333.258-1.384-.257-2.666-1.393-3.333L166.59 7.794c-.568-.359-1.187-.513-1.858-.513z" fill="url(#paint18_linear_2621_2)"/><path d="M160.759 48.405a6.48 6.48 0 01-3.457-.975c-2.012-1.282-2.941-3.589-2.477-6.204l5.366-30.1c.465-2.563 2.219-4.87 4.644-6.152 2.477-1.282 5.16-1.333 7.172-.051l24.353 15.075c2.064 1.281 3.044 3.64 2.58 6.255-.465 2.615-2.271 4.974-4.799 6.256l-29.719 15.024c-1.187.564-2.476.872-3.663.872zm7.326-41.124c-.67 0-1.393.154-2.063.513-1.342.718-2.271 1.948-2.477 3.333l-5.366 30.099c-.258 1.384.258 2.615 1.342 3.333.516.359 1.186.513 1.857.513s1.342-.154 1.961-.513l29.719-15.024c1.341-.667 2.322-1.948 2.58-3.333.258-1.384-.258-2.666-1.394-3.333L169.943 7.794a3.637 3.637 0 00-1.858-.513z" fill="url(#paint19_linear_2621_2)"/><defs><linearGradient id="paint0_linear_2621_2" x1="89.038" y1="-7.126" x2="111.673" y2="-.099" gradientUnits="userSpaceOnUse"><stop stop-color="#fff"/><stop offset="1" stop-color="#fff" stop-opacity="0"/></linearGradient><linearGradient id="paint1_linear_2621_2" x1="119.555" y1="6.838" x2="138.938" y2="14.095" gradientUnits="userSpaceOnUse"><stop stop-color="#fff"/><stop offset="1" stop-color="#fff" stop-opacity="0"/></linearGradient><linearGradient id="paint2_linear_2621_2" x1="104.919" y1="6.838" x2="124.251" y2="14.05" gradientUnits="userSpaceOnUse"><stop stop-color="#fff"/><stop offset="1" stop-color="#fff" stop-opacity="0"/></linearGradient><linearGradient id="paint3_linear_2621_2" x1="71.096" y1="6.819" x2="90.251" y2="13.875" gradientUnits="userSpaceOnUse"><stop stop-color="#fff"/><stop offset="1" stop-color="#fff" stop-opacity="0"/></linearGradient><linearGradient id="paint4_linear_2621_2" x1="87.746" y1="20.285" x2="94.173" y2="21.373" gradientUnits="userSpaceOnUse"><stop stop-color="#fff"/><stop offset="1" stop-color="#fff" stop-opacity="0"/></linearGradient><linearGradient id="paint5_linear_2621_2" x1="90.407" y1="24.081" x2="94.723" y2="25.428" gradientUnits="userSpaceOnUse"><stop stop-color="#fff"/><stop offset="1" stop-color="#fff" stop-opacity="0"/></linearGradient><linearGradient id="paint6_linear_2621_2" x1="-5.873" y1="-25.636" x2="16.72" y2="-18.638" gradientUnits="userSpaceOnUse"><stop stop-color="#fff"/><stop offset="1" stop-color="#fff" stop-opacity="0"/></linearGradient><linearGradient id="paint7_linear_2621_2" x1="41.465" y1="-31.431" x2="64.1" y2="-24.403" gradientUnits="userSpaceOnUse"><stop stop-color="#fff"/><stop offset="1" stop-color="#fff" stop-opacity="0"/></linearGradient><linearGradient id="paint8_linear_2621_2" x1="26.888" y1="-17.415" x2="46.271" y2="-10.158" gradientUnits="userSpaceOnUse"><stop stop-color="#fff"/><stop offset="1" stop-color="#fff" stop-opacity="0"/></linearGradient><linearGradient id="paint9_linear_2621_2" x1="10.707" y1="-17.488" x2="30.801" y2="-9.624" gradientUnits="userSpaceOnUse"><stop stop-color="#fff"/><stop offset="1" stop-color="#fff" stop-opacity="0"/></linearGradient><linearGradient id="paint10_linear_2621_2" x1="93.43" y1="-17.663" x2="112.829" y2="-10.452" gradientUnits="userSpaceOnUse"><stop stop-color="#fff"/><stop offset="1" stop-color="#fff" stop-opacity="0"/></linearGradient><linearGradient id="paint11_linear_2621_2" x1="76.715" y1="-17.539" x2="96.821" y2="-9.665" gradientUnits="userSpaceOnUse"><stop stop-color="#fff"/><stop offset="1" stop-color="#fff" stop-opacity="0"/></linearGradient><linearGradient id="paint12_linear_2621_2" x1="103.817" y1="-17.539" x2="131.11" y2=".594" gradientUnits="userSpaceOnUse"><stop stop-color="#fff"/><stop offset="1" stop-color="#fff" stop-opacity="0"/></linearGradient><linearGradient id="paint13_linear_2621_2" x1="58.547" y1="-17.486" x2="77.738" y2="-10.399" gradientUnits="userSpaceOnUse"><stop stop-color="#fff"/><stop offset="1" stop-color="#fff" stop-opacity="0"/></linearGradient><linearGradient id="paint14_linear_2621_2" x1="75.219" y1="-5.384" x2="81.812" y2="-4.297" gradientUnits="userSpaceOnUse"><stop stop-color="#fff"/><stop offset="1" stop-color="#fff" stop-opacity="0"/></linearGradient><linearGradient id="paint15_linear_2621_2" x1="77.864" y1="-.274" x2="82.196" y2="1.085" gradientUnits="userSpaceOnUse"><stop stop-color="#fff"/><stop offset="1" stop-color="#fff" stop-opacity="0"/></linearGradient><linearGradient id="paint16_linear_2621_2" x1="137.703" y1="15.485" x2="141.309" y2="17.033" gradientUnits="userSpaceOnUse"><stop stop-color="#fff"/><stop offset="1" stop-color="#fff" stop-opacity="0"/></linearGradient><linearGradient id="paint17_linear_2621_2" x1="193.066" y1="3.103" x2="139.734" y2="44.758" gradientUnits="userSpaceOnUse"><stop stop-color="#FF0067"/><stop offset="1" stop-color="#FF3248"/></linearGradient><linearGradient id="paint18_linear_2621_2" x1="194.319" y1="4.705" x2="140.987" y2="46.361" gradientUnits="userSpaceOnUse"><stop stop-color="#FF0067"/><stop offset="1" stop-color="#FF3248"/></linearGradient><linearGradient id="paint19_linear_2621_2" x1="195.571" y1="6.309" x2="142.239" y2="47.965" gradientUnits="userSpaceOnUse"><stop stop-color="#FF0067"/><stop offset="1" stop-color="#FF3248"/></linearGradient></defs></svg>