<svg width="21" height="21" viewBox="0 0 21 21" fill="none" xmlns="http://www.w3.org/2000/svg">
<path fill-rule="evenodd" clip-rule="evenodd" d="M2.8329 8.0224C2.8329 5.17506 5.12122 2.86684 7.94401 2.86684C10.7668 2.86684 13.0551 5.17506 13.0551 8.0224C13.0551 10.8697 10.7668 13.178 7.94401 13.178C5.12122 13.178 2.8329 10.8697 2.8329 8.0224ZM7.94401 0.289062C3.70983 0.289062 0.277344 3.75139 0.277344 8.0224C0.277344 12.2934 3.70983 15.7557 7.94401 15.7557C9.59982 15.7557 11.133 15.2263 12.3863 14.326L18.5405 20.5338L20.3475 18.711L14.1933 12.5033C15.0858 11.2391 15.6107 9.6926 15.6107 8.0224C15.6107 3.75139 12.1782 0.289062 7.94401 0.289062Z" fill="#0F1011"/>
</svg>
