<svg width="16" height="16" viewBox="0 0 16 16" fill="none" xmlns="http://www.w3.org/2000/svg">
<path d="M15.6717 7.29526L12.8229 10.2599L13.3843 14.3316C13.4154 14.5438 13.3873 14.7605 13.3031 14.9578C13.219 15.1551 13.0821 15.3253 12.9074 15.4498C12.7355 15.5773 12.5317 15.6547 12.3185 15.6735C12.1053 15.6923 11.8911 15.6518 11.6995 15.5565L7.9998 13.7639L4.30015 15.5564C4.13979 15.6357 3.96341 15.6773 3.78451 15.6779C3.53588 15.6761 3.29406 15.5965 3.09285 15.4505C2.91824 15.3262 2.78125 15.1562 2.69691 14.9591C2.61257 14.7621 2.58414 14.5456 2.61473 14.3334L3.17672 10.2599L0.329638 7.29591C0.181496 7.14179 0.0779527 6.95036 0.0300456 6.74203C-0.0178615 6.53369 -0.00833685 6.31626 0.0576045 6.11291C0.123546 5.90957 0.243432 5.72792 0.404483 5.58735C0.565534 5.44677 0.761713 5.35254 0.972107 5.31469L5.01902 4.5906L6.95858 0.96622C7.05938 0.777658 7.20951 0.620016 7.39293 0.510126C7.57634 0.400236 7.78616 0.342224 7.99998 0.342285C8.2138 0.342346 8.42358 0.400477 8.60694 0.510472C8.79029 0.620466 8.94033 0.778194 9.04103 0.966812L10.9806 4.5906L15.0264 5.31469C15.2368 5.35232 15.4331 5.44634 15.5943 5.58672C15.7555 5.7271 15.8756 5.90859 15.9419 6.11185C16.0081 6.3151 16.0179 6.53252 15.9704 6.74093C15.9228 6.94934 15.8196 7.14094 15.6717 7.29532V7.29526Z" fill="#5A2B0D"/>
</svg>
