<svg width="13" height="13" viewBox="0 0 13 13" fill="none" xmlns="http://www.w3.org/2000/svg">
<path d="M6.5 0C10.0896 0 13 2.91037 13 6.5C13 10.0896 10.0896 13 6.5 13C2.91037 13 0 10.0896 0 6.5C0 2.91037 2.91037 0 6.5 0ZM3.47059 7.90766C3.77366 8.21072 4.264 8.21072 4.56706 7.90766L6.49512 5.95725L8.42319 7.90766C8.72625 8.21072 9.21659 8.21072 9.51966 7.90766C9.82109 7.60134 9.82272 7.10612 9.51966 6.79981L7.04234 4.29894C6.74091 3.99588 6.24894 3.99588 5.94587 4.29894L3.47019 6.79981C3.16753 7.10612 3.16753 7.60134 3.47059 7.90766Z" fill="#24B02A"/>
</svg>
