<svg width="19" height="18" viewBox="0 0 19 18" fill="none" xmlns="http://www.w3.org/2000/svg">
<g clip-path="url(#clip0_2_20)">
<path d="M9.49469 0.00488714C4.25109 0.0059412 0.00120309 4.03387 0.00231571 9.0015C0.00268658 10.7216 0.523728 12.4056 1.50358 13.8537L0.0264225 17.4846C-0.0522399 17.6777 0.0492313 17.8946 0.253064 17.9692C0.298644 17.9858 0.347043 17.9944 0.395887 17.9943C0.441208 17.9945 0.486195 17.9871 0.528809 17.9725L4.48481 16.6346C8.93575 19.2608 14.7912 17.9714 17.5632 13.7547C20.3353 9.53798 18.9744 3.99076 14.5234 1.36459C13.0146 0.474332 11.2723 0.00323577 9.49469 0.00488714Z" fill="#4CAF50"/>
<path d="M14.0212 10.5366C14.0212 10.5366 13.052 10.0869 12.4452 9.78706C11.7584 9.45201 10.9514 10.0794 10.5716 10.4362C9.98055 10.2211 9.44071 9.89644 8.98368 9.48125C8.54534 9.04834 8.20265 8.53691 7.97568 7.97689C8.3523 7.61636 9.01294 6.85255 8.66087 6.20195C8.34833 5.62629 7.86968 4.70883 7.86968 4.70809C7.80252 4.58182 7.66607 4.50209 7.51679 4.50195H6.72561C5.57338 4.69049 4.73561 5.64294 4.74763 6.75062C4.74763 7.92741 6.23427 10.1881 7.23675 11.1385C8.23922 12.0889 10.6255 13.4966 11.8684 13.4966C13.0376 13.508 14.043 12.7143 14.242 11.6228V10.8732C14.2421 10.7303 14.1565 10.5997 14.0212 10.5366Z" fill="#FAFAFA"/>
</g>
<defs>
<clipPath id="clip0_2_20">
<rect width="19" height="18" fill="white"/>
</clipPath>
</defs>
</svg>
