<svg width="268" height="88" viewBox="0 0 268 88" fill="none" xmlns="http://www.w3.org/2000/svg">
<g filter="url(#filter0_ii_2_117)">
<path d="M11.6849 2.58771C151.789 1.8041 116.212 1.8041 256.315 2.5877C260.949 2.6142 265.374 6.7603 265.992 11.8457C268.669 33.9484 268.669 56.0511 265.992 78.1548C265.374 83.2402 260.949 87.3858 256.315 87.4123C116.212 88.1959 151.789 88.1959 11.6849 87.4123C7.05082 87.3858 2.62677 83.2402 2.00841 78.1548C-0.66947 56.0511 -0.66947 33.9484 2.00841 11.8457C2.62677 6.7603 7.05082 2.61421 11.6849 2.58771Z" fill="url(#paint0_linear_2_117)"/>
<path d="M11.6849 2.58771C151.789 1.8041 116.212 1.8041 256.315 2.5877C260.949 2.6142 265.374 6.7603 265.992 11.8457C268.669 33.9484 268.669 56.0511 265.992 78.1548C265.374 83.2402 260.949 87.3858 256.315 87.4123C116.212 88.1959 151.789 88.1959 11.6849 87.4123C7.05082 87.3858 2.62677 83.2402 2.00841 78.1548C-0.66947 56.0511 -0.66947 33.9484 2.00841 11.8457C2.62677 6.7603 7.05082 2.61421 11.6849 2.58771Z" fill="url(#paint1_linear_2_117)"/>
<path d="M11.6849 2.58771C151.789 1.8041 116.212 1.8041 256.315 2.5877C260.949 2.6142 265.374 6.7603 265.992 11.8457C268.669 33.9484 268.669 56.0511 265.992 78.1548C265.374 83.2402 260.949 87.3858 256.315 87.4123C116.212 88.1959 151.789 88.1959 11.6849 87.4123C7.05082 87.3858 2.62677 83.2402 2.00841 78.1548C-0.66947 56.0511 -0.66947 33.9484 2.00841 11.8457C2.62677 6.7603 7.05082 2.61421 11.6849 2.58771Z" fill="black" fill-opacity="0.24"/>
</g>
<g filter="url(#filter1_ii_2_117)">
<path d="M11.6849 0.587739C151.789 -0.195864 116.212 -0.195938 256.315 0.587666C260.949 0.614165 265.374 4.76026 265.992 9.84564C268.669 31.9484 268.669 54.0511 265.992 76.1548C265.374 81.2401 260.949 85.3858 256.315 85.4123C116.212 86.1959 151.789 86.1959 11.6849 85.4123C7.05082 85.3858 2.62677 81.2402 2.00841 76.1548C-0.66947 54.0511 -0.66947 31.9484 2.00841 9.84571C2.62677 4.76033 7.05082 0.614238 11.6849 0.587739Z" fill="url(#paint2_linear_2_117)"/>
<path d="M11.6849 0.587739C151.789 -0.195864 116.212 -0.195938 256.315 0.587666C260.949 0.614165 265.374 4.76026 265.992 9.84564C268.669 31.9484 268.669 54.0511 265.992 76.1548C265.374 81.2401 260.949 85.3858 256.315 85.4123C116.212 86.1959 151.789 86.1959 11.6849 85.4123C7.05082 85.3858 2.62677 81.2402 2.00841 76.1548C-0.66947 54.0511 -0.66947 31.9484 2.00841 9.84571C2.62677 4.76033 7.05082 0.614238 11.6849 0.587739Z" fill="url(#paint3_linear_2_117)"/>
</g>
<g filter="url(#filter2_i_2_117)">
<path d="M84.3778 44.6567H84.1978L81.9928 49.2617H79.6378L82.3378 43.9517L79.8478 38.9117H82.1878L84.1828 43.1867H84.4078L86.4028 38.9117H88.7428L86.2528 43.9517L88.9528 49.2617H86.5828L84.3778 44.6567ZM91.9692 39.8717C92.6192 39.1017 93.7742 38.7167 95.4342 38.7167C97.0942 38.7167 98.2492 39.1017 98.8992 39.8717C99.5492 40.6317 99.8742 42.0367 99.8742 44.0867C99.8742 46.1367 99.5492 47.5467 98.8992 48.3167C98.2492 49.0767 97.0942 49.4567 95.4342 49.4567C93.7742 49.4567 92.6192 49.0767 91.9692 48.3167C91.3292 47.5467 91.0092 46.1367 91.0092 44.0867C91.0092 42.0367 91.3292 40.6317 91.9692 39.8717ZM97.0242 41.2967C96.7442 40.8067 96.2142 40.5617 95.4342 40.5617C94.6542 40.5617 94.1192 40.8067 93.8292 41.2967C93.5492 41.7867 93.4092 42.7167 93.4092 44.0867C93.4092 45.4567 93.5492 46.3867 93.8292 46.8767C94.1192 47.3667 94.6542 47.6117 95.4342 47.6117C96.2142 47.6117 96.7442 47.3667 97.0242 46.8767C97.3142 46.3867 97.4592 45.4567 97.4592 44.0867C97.4592 42.7167 97.3142 41.7867 97.0242 41.2967ZM110.833 38.9117V49.2617H108.553V44.9717C107.483 45.4917 106.428 45.7517 105.388 45.7517C104.498 45.7517 103.838 45.5517 103.408 45.1517C102.988 44.7417 102.778 44.1067 102.778 43.2467V38.9117H105.058V42.7517C105.048 43.1417 105.128 43.4167 105.298 43.5767C105.468 43.7367 105.773 43.8167 106.213 43.8167C106.983 43.8167 107.763 43.6617 108.553 43.3517V38.9117H110.833ZM122.267 38.9117L119.732 46.5917C119.432 47.5017 119.092 48.1867 118.712 48.6467C118.332 49.0967 117.802 49.3517 117.122 49.4117C116.442 49.4717 115.612 49.3967 114.632 49.1867L114.887 47.5667C115.857 47.6167 116.472 47.6017 116.732 47.5217C117.002 47.4317 117.232 47.1417 117.422 46.6517L117.542 46.3217H116.987C116.317 46.3217 115.872 45.9767 115.652 45.2867L113.522 38.9117H115.862L117.497 44.3867C117.527 44.5067 117.617 44.5667 117.767 44.5667H118.142L119.927 38.9117H122.267ZM137.29 40.7717H134.2V49.2617H131.905V40.7717H128.815V38.9117H137.29V40.7717ZM144.865 46.5467H141.31L140.56 49.2617H138.22L141.205 39.5117C141.245 39.3317 141.34 39.1867 141.49 39.0767C141.64 38.9667 141.81 38.9117 142 38.9117H144.16C144.59 38.9117 144.855 39.1117 144.955 39.5117L147.94 49.2617H145.615L144.865 46.5467ZM144.37 44.7767L143.5 41.6117C143.38 41.1117 143.31 40.7867 143.29 40.6367H142.885C142.865 40.7367 142.83 40.8967 142.78 41.1167C142.73 41.3367 142.69 41.5017 142.66 41.6117L141.79 44.7767H144.37ZM155.19 43.8317V43.8917C155.38 43.9217 155.555 43.9567 155.715 43.9967C155.875 44.0267 156.025 44.0817 156.165 44.1617C156.315 44.2417 156.445 44.3117 156.555 44.3717C156.665 44.4317 156.775 44.5417 156.885 44.7017C157.005 44.8517 157.1 44.9717 157.17 45.0617C157.25 45.1517 157.34 45.3167 157.44 45.5567C157.55 45.7967 157.635 45.9867 157.695 46.1267C157.755 46.2567 157.84 46.4917 157.95 46.8317C158.07 47.1717 158.16 47.4367 158.22 47.6267C158.28 47.8067 158.38 48.1167 158.52 48.5567C158.62 48.8667 158.695 49.1017 158.745 49.2617H156.36C155.8 47.4317 155.42 46.3117 155.22 45.9017C154.91 45.2717 154.52 44.8967 154.05 44.7767C153.87 44.7267 153.665 44.7017 153.435 44.7017H152.7C152.78 45.0717 152.82 45.4017 152.82 45.6917V49.2617H150.54V38.9117H152.82V41.8367C152.82 42.2267 152.78 42.6367 152.7 43.0667H153.405C154.115 43.0667 154.625 42.7967 154.935 42.2567C155.255 41.7167 155.645 40.6517 156.105 39.0617C156.125 38.9917 156.14 38.9417 156.15 38.9117H158.475C157.915 40.6717 157.56 41.7167 157.41 42.0467C157.06 42.8267 156.62 43.3417 156.09 43.5917C155.84 43.7017 155.54 43.7817 155.19 43.8317ZM175.553 43.8317V43.8917C176.463 44.0117 177.098 44.3667 177.458 44.9567C177.828 45.5467 178.313 46.8267 178.913 48.7967C178.983 48.9967 179.033 49.1517 179.063 49.2617H176.663C176.033 47.3417 175.633 46.1917 175.463 45.8117C175.173 45.2117 174.828 44.8617 174.428 44.7617C174.298 44.7217 174.153 44.7017 173.993 44.7017H173.303C173.383 45.0717 173.423 45.4017 173.423 45.6917V49.2617H171.233V45.6917C171.233 45.4017 171.273 45.0717 171.353 44.7017H170.618C170.068 44.7017 169.658 44.9417 169.388 45.4217C169.118 45.8917 168.723 46.9217 168.203 48.5117C168.103 48.8317 168.023 49.0817 167.963 49.2617H165.563C166.163 47.3117 166.573 46.1067 166.793 45.6467C167.143 44.8767 167.598 44.3717 168.158 44.1317C168.408 44.0217 168.713 43.9417 169.073 43.8917V43.8317C168.823 43.8017 168.593 43.7467 168.383 43.6667C168.183 43.5867 168.008 43.5017 167.858 43.4117C167.708 43.3217 167.563 43.1767 167.423 42.9767C167.283 42.7767 167.163 42.6017 167.063 42.4517C166.973 42.2917 166.863 42.0417 166.733 41.7017C166.613 41.3517 166.513 41.0617 166.433 40.8317C166.363 40.5917 166.253 40.2267 166.103 39.7367C165.993 39.3767 165.908 39.1017 165.848 38.9117H168.173C168.713 40.6117 169.083 41.6567 169.283 42.0467C169.693 42.6867 170.138 43.0267 170.618 43.0667H171.353C171.273 42.6367 171.233 42.2267 171.233 41.8367V38.9117H173.423V41.8367C173.423 42.2267 173.383 42.6367 173.303 43.0667H173.978C174.508 43.0667 174.908 42.8217 175.178 42.3317C175.448 41.8417 175.818 40.8717 176.288 39.4217C176.358 39.2017 176.413 39.0317 176.453 38.9117H178.778C178.228 40.6717 177.873 41.7317 177.713 42.0917C177.373 42.8617 176.933 43.3667 176.393 43.6067C176.153 43.7167 175.873 43.7917 175.553 43.8317ZM188.805 47.4767L188.895 49.1567C187.965 49.2567 186.365 49.3067 184.095 49.3067C183.405 49.3067 182.855 49.1217 182.445 48.7517C182.035 48.3717 181.83 47.8617 181.83 47.2217V40.9517C181.83 40.3117 182.035 39.8067 182.445 39.4367C182.865 39.0567 183.415 38.8667 184.095 38.8667C186.365 38.8667 187.965 38.9167 188.895 39.0167L188.805 40.7117H184.815C184.565 40.7117 184.385 40.7717 184.275 40.8917C184.165 41.0117 184.11 41.2067 184.11 41.4767V43.0517H188.235V44.7017H184.11V46.6967C184.11 46.9767 184.165 47.1767 184.275 47.2967C184.385 47.4167 184.565 47.4767 184.815 47.4767H188.805Z" fill="white"/>
</g>
<defs>
<filter id="filter0_ii_2_117" x="-4" y="-2" width="275" height="93" filterUnits="userSpaceOnUse" color-interpolation-filters="sRGB">
<feFlood flood-opacity="0" result="BackgroundImageFix"/>
<feBlend mode="normal" in="SourceGraphic" in2="BackgroundImageFix" result="shape"/>
<feColorMatrix in="SourceAlpha" type="matrix" values="0 0 0 0 0 0 0 0 0 0 0 0 0 0 0 0 0 0 127 0" result="hardAlpha"/>
<feOffset dx="3" dy="3"/>
<feGaussianBlur stdDeviation="4"/>
<feComposite in2="hardAlpha" operator="arithmetic" k2="-1" k3="1"/>
<feColorMatrix type="matrix" values="0 0 0 0 1 0 0 0 0 1 0 0 0 0 1 0 0 0 0.12 0"/>
<feBlend mode="normal" in2="shape" result="effect1_innerShadow_2_117"/>
<feColorMatrix in="SourceAlpha" type="matrix" values="0 0 0 0 0 0 0 0 0 0 0 0 0 0 0 0 0 0 127 0" result="hardAlpha"/>
<feOffset dx="-4" dy="-4"/>
<feGaussianBlur stdDeviation="4"/>
<feComposite in2="hardAlpha" operator="arithmetic" k2="-1" k3="1"/>
<feColorMatrix type="matrix" values="0 0 0 0 1 0 0 0 0 1 0 0 0 0 1 0 0 0 0.12 0"/>
<feBlend mode="normal" in2="effect1_innerShadow_2_117" result="effect2_innerShadow_2_117"/>
</filter>
<filter id="filter1_ii_2_117" x="-5" y="-2" width="280" height="96" filterUnits="userSpaceOnUse" color-interpolation-filters="sRGB">
<feFlood flood-opacity="0" result="BackgroundImageFix"/>
<feBlend mode="normal" in="SourceGraphic" in2="BackgroundImageFix" result="shape"/>
<feColorMatrix in="SourceAlpha" type="matrix" values="0 0 0 0 0 0 0 0 0 0 0 0 0 0 0 0 0 0 127 0" result="hardAlpha"/>
<feOffset dx="-5" dy="-2"/>
<feGaussianBlur stdDeviation="4"/>
<feComposite in2="hardAlpha" operator="arithmetic" k2="-1" k3="1"/>
<feColorMatrix type="matrix" values="0 0 0 0 1 0 0 0 0 1 0 0 0 0 1 0 0 0 0.12 0"/>
<feBlend mode="normal" in2="shape" result="effect1_innerShadow_2_117"/>
<feColorMatrix in="SourceAlpha" type="matrix" values="0 0 0 0 0 0 0 0 0 0 0 0 0 0 0 0 0 0 127 0" result="hardAlpha"/>
<feOffset dx="7" dy="8"/>
<feGaussianBlur stdDeviation="4"/>
<feComposite in2="hardAlpha" operator="arithmetic" k2="-1" k3="1"/>
<feColorMatrix type="matrix" values="0 0 0 0 1 0 0 0 0 1 0 0 0 0 1 0 0 0 0.09 0"/>
<feBlend mode="normal" in2="effect1_innerShadow_2_117" result="effect2_innerShadow_2_117"/>
</filter>
<filter id="filter2_i_2_117" x="79.6378" y="38.7167" width="109.757" height="11.285" filterUnits="userSpaceOnUse" color-interpolation-filters="sRGB">
<feFlood flood-opacity="0" result="BackgroundImageFix"/>
<feBlend mode="normal" in="SourceGraphic" in2="BackgroundImageFix" result="shape"/>
<feColorMatrix in="SourceAlpha" type="matrix" values="0 0 0 0 0 0 0 0 0 0 0 0 0 0 0 0 0 0 127 0" result="hardAlpha"/>
<feOffset dx="0.5" dy="0.5"/>
<feGaussianBlur stdDeviation="0.5"/>
<feComposite in2="hardAlpha" operator="arithmetic" k2="-1" k3="1"/>
<feColorMatrix type="matrix" values="0 0 0 0 0 0 0 0 0 0 0 0 0 0 0 0 0 0 0.15 0"/>
<feBlend mode="normal" in2="shape" result="effect1_innerShadow_2_117"/>
</filter>
<linearGradient id="paint0_linear_2_117" x1="426.265" y1="76.7831" x2="374.843" y2="-65.7383" gradientUnits="userSpaceOnUse">
<stop stop-color="#EB235F"/>
<stop offset="1" stop-color="#FF134C"/>
</linearGradient>
<linearGradient id="paint1_linear_2_117" x1="-33.8503" y1="-116.873" x2="94.2548" y2="104.728" gradientUnits="userSpaceOnUse">
<stop stop-color="#FF88A5"/>
<stop offset="1" stop-color="#FF8888" stop-opacity="0"/>
</linearGradient>
<linearGradient id="paint2_linear_2_117" x1="426.265" y1="74.7833" x2="374.844" y2="-67.738" gradientUnits="userSpaceOnUse">
<stop stop-color="#EB235F"/>
<stop offset="1" stop-color="#FF134C"/>
</linearGradient>
<linearGradient id="paint3_linear_2_117" x1="-33.8501" y1="-118.873" x2="94.255" y2="102.728" gradientUnits="userSpaceOnUse">
<stop stop-color="#FF88A5"/>
<stop offset="1" stop-color="#FF8888" stop-opacity="0"/>
</linearGradient>
</defs>
</svg>
