<svg width="235" height="66" viewBox="0 0 235 66" fill="none" xmlns="http://www.w3.org/2000/svg">
<g filter="url(#filter0_ii_2_547)">
<path d="M10.2461 0.451056C133.098 -0.150314 101.902 -0.150371 224.754 0.450999C228.818 0.471336 232.697 3.65322 233.24 7.55596C235.587 24.5185 235.587 41.4811 233.24 58.4444C232.697 62.3471 228.818 65.5286 224.754 65.549C101.902 66.1503 133.098 66.1504 10.2461 65.549C6.18262 65.5287 2.30332 62.3471 1.76111 58.4444C-0.587035 41.4811 -0.587035 24.5186 1.76111 7.55601C2.30332 3.65328 6.18262 0.471392 10.2461 0.451056Z" fill="white"/>
</g>
<g filter="url(#filter1_i_2_547)">
<path d="M44.7573 28.9117V39.2617H42.4773V30.5617H38.8473V39.2617H36.5673V28.9117H44.7573ZM55.2938 37.4767L55.3838 39.1567C54.4538 39.2567 52.8538 39.3067 50.5838 39.3067C49.8938 39.3067 49.3438 39.1217 48.9338 38.7517C48.5238 38.3717 48.3188 37.8617 48.3188 37.2217V30.9517C48.3188 30.3117 48.5238 29.8067 48.9338 29.4367C49.3538 29.0567 49.9038 28.8667 50.5838 28.8667C52.8538 28.8667 54.4538 28.9167 55.3838 29.0167L55.2938 30.7117H51.3037C51.0538 30.7117 50.8738 30.7717 50.7638 30.8917C50.6538 31.0117 50.5988 31.2067 50.5988 31.4767V33.0517H54.7238V34.7017H50.5988V36.6967C50.5988 36.9767 50.6538 37.1767 50.7638 37.2967C50.8738 37.4167 51.0538 37.4767 51.3037 37.4767H55.2938ZM58.566 39.2617V28.9117C59.496 28.8217 60.811 28.7767 62.511 28.7767C63.951 28.7767 64.936 29.0117 65.466 29.4817C66.006 29.9517 66.276 30.8417 66.276 32.1517C66.276 33.4617 66.021 34.3567 65.511 34.8367C65.011 35.3067 64.111 35.5417 62.811 35.5417C62.151 35.5417 61.501 35.5017 60.861 35.4217V39.2617H58.566ZM60.861 33.7867H62.451C63.051 33.7767 63.456 33.6617 63.666 33.4417C63.876 33.2217 63.981 32.7917 63.981 32.1517C63.981 31.5117 63.876 31.0817 63.666 30.8617C63.456 30.6417 63.051 30.5317 62.451 30.5317L60.861 30.5467V33.7867ZM76.1941 37.4767L76.2841 39.1567C75.3541 39.2567 73.7541 39.3067 71.4841 39.3067C70.7941 39.3067 70.2441 39.1217 69.8341 38.7517C69.4241 38.3717 69.2191 37.8617 69.2191 37.2217V30.9517C69.2191 30.3117 69.4241 29.8067 69.8341 29.4367C70.2541 29.0567 70.8041 28.8667 71.4841 28.8667C73.7541 28.8667 75.3541 28.9167 76.2841 29.0167L76.1941 30.7117H72.2041C71.9541 30.7117 71.7741 30.7717 71.6641 30.8917C71.5541 31.0117 71.4991 31.2067 71.4991 31.4767V33.0517H75.6241V34.7017H71.4991V36.6967C71.4991 36.9767 71.5541 37.1767 71.6641 37.2967C71.7741 37.4167 71.9541 37.4767 72.2041 37.4767H76.1941ZM84.7914 25.8367H86.2614C86.3414 26.4767 86.1564 27.0267 85.7064 27.4867C85.2564 27.9367 84.6264 28.1617 83.8164 28.1617C83.0064 28.1617 82.3714 27.9367 81.9114 27.4867C81.4514 27.0267 81.2614 26.4767 81.3414 25.8367H82.8114C82.7714 26.6567 83.1064 27.0667 83.8164 27.0667C84.5064 27.0667 84.8314 26.6567 84.7914 25.8367ZM87.9864 39.2617H85.7964V33.0817C85.7964 32.6217 85.8414 32.1567 85.9314 31.6867H85.8264C85.6764 32.1467 85.4814 32.6017 85.2414 33.0517L81.7464 39.2617H79.4814V28.9117H81.6564V34.9867C81.6564 35.4167 81.6164 35.8967 81.5364 36.4267H81.6264C81.7564 36.0467 81.9564 35.5967 82.2264 35.0767L85.7214 28.9117H87.9864V39.2617ZM99.3104 30.7717H96.2204V39.2617H93.9254V30.7717H90.8354V28.9117H99.3104V30.7717ZM110.659 39.2617H108.469V33.0817C108.469 32.6217 108.514 32.1567 108.604 31.6867H108.499C108.349 32.1467 108.154 32.6017 107.914 33.0517L104.419 39.2617H102.154V28.9117H104.329V34.9867C104.329 35.4167 104.289 35.8967 104.209 36.4267H104.299C104.429 36.0467 104.629 35.5967 104.899 35.0767L108.394 28.9117H110.659V39.2617ZM127.29 28.9117V39.2617H124.995V34.6417H121.35V39.2617H119.07V28.9117H121.35V32.8717H124.995V28.9117H127.29ZM136.536 36.5467H132.981L132.231 39.2617H129.891L132.876 29.5117C132.916 29.3317 133.011 29.1867 133.161 29.0767C133.311 28.9667 133.481 28.9117 133.671 28.9117H135.831C136.261 28.9117 136.526 29.1117 136.626 29.5117L139.611 39.2617H137.286L136.536 36.5467ZM136.041 34.7767L135.171 31.6117C135.051 31.1117 134.981 30.7867 134.961 30.6367H134.556C134.536 30.7367 134.501 30.8967 134.451 31.1167C134.401 31.3367 134.361 31.5017 134.331 31.6117L133.461 34.7767H136.041ZM151.614 33.8317V33.8917C151.804 33.9217 151.979 33.9567 152.139 33.9967C152.299 34.0267 152.449 34.0817 152.589 34.1617C152.739 34.2417 152.869 34.3117 152.979 34.3717C153.089 34.4317 153.199 34.5417 153.309 34.7017C153.429 34.8517 153.524 34.9717 153.594 35.0617C153.674 35.1517 153.764 35.3167 153.864 35.5567C153.974 35.7967 154.059 35.9867 154.119 36.1267C154.179 36.2567 154.264 36.4917 154.374 36.8317C154.494 37.1717 154.584 37.4367 154.644 37.6267C154.704 37.8067 154.804 38.1167 154.944 38.5567C155.044 38.8667 155.119 39.1017 155.169 39.2617H152.784C152.224 37.4317 151.844 36.3117 151.644 35.9017C151.334 35.2717 150.944 34.8967 150.474 34.7767C150.294 34.7267 150.089 34.7017 149.859 34.7017H149.124C149.204 35.0717 149.244 35.4017 149.244 35.6917V39.2617H146.964V28.9117H149.244V31.8367C149.244 32.2267 149.204 32.6367 149.124 33.0667H149.829C150.539 33.0667 151.049 32.7967 151.359 32.2567C151.679 31.7167 152.069 30.6517 152.529 29.0617C152.549 28.9917 152.564 28.9417 152.574 28.9117H154.899C154.339 30.6717 153.984 31.7167 153.834 32.0467C153.484 32.8267 153.044 33.3417 152.514 33.5917C152.264 33.7017 151.964 33.7817 151.614 33.8317ZM163.609 36.5467H160.054L159.304 39.2617H156.964L159.949 29.5117C159.989 29.3317 160.084 29.1867 160.234 29.0767C160.384 28.9667 160.554 28.9117 160.744 28.9117H162.904C163.334 28.9117 163.599 29.1117 163.699 29.5117L166.684 39.2617H164.359L163.609 36.5467ZM163.114 34.7767L162.244 31.6117C162.124 31.1117 162.054 30.7867 162.034 30.6367H161.629C161.609 30.7367 161.574 30.8967 161.524 31.1167C161.474 31.3367 161.434 31.5017 161.404 31.6117L160.534 34.7767H163.114ZM177.505 28.9117V39.2617H175.21V34.6417H171.565V39.2617H169.285V28.9117H171.565V32.8717H175.21V28.9117H177.505ZM186.751 36.5467H183.196L182.446 39.2617H180.106L183.091 29.5117C183.131 29.3317 183.226 29.1867 183.376 29.0767C183.526 28.9667 183.696 28.9117 183.886 28.9117H186.046C186.476 28.9117 186.741 29.1117 186.841 29.5117L189.826 39.2617H187.501L186.751 36.5467ZM186.256 34.7767L185.386 31.6117C185.266 31.1117 185.196 30.7867 185.176 30.6367H184.771C184.751 30.7367 184.716 30.8967 184.666 31.1167C184.616 31.3367 184.576 31.5017 184.546 31.6117L183.676 34.7767H186.256ZM200.452 28.9117V39.2617H198.157V30.5617H196.837C196.247 30.5617 195.932 30.8517 195.892 31.4317C195.762 32.9817 195.637 34.1617 195.517 34.9717C195.407 35.7817 195.237 36.4767 195.007 37.0567C194.397 38.7567 193.252 39.5067 191.572 39.3067L191.407 37.5367C191.797 37.4667 192.107 37.3517 192.337 37.1917C192.577 37.0317 192.762 36.7817 192.892 36.4417C193.092 35.9117 193.247 35.2717 193.357 34.5217C193.467 33.7617 193.582 32.6417 193.702 31.1617C193.812 29.6617 194.622 28.9117 196.132 28.9117H200.452Z" fill="black"/>
</g>
<defs>
<filter id="filter0_ii_2_547" x="-5" y="-2" width="247" height="76" filterUnits="userSpaceOnUse" color-interpolation-filters="sRGB">
<feFlood flood-opacity="0" result="BackgroundImageFix"/>
<feBlend mode="normal" in="SourceGraphic" in2="BackgroundImageFix" result="shape"/>
<feColorMatrix in="SourceAlpha" type="matrix" values="0 0 0 0 0 0 0 0 0 0 0 0 0 0 0 0 0 0 127 0" result="hardAlpha"/>
<feOffset dx="-5" dy="-2"/>
<feGaussianBlur stdDeviation="4"/>
<feComposite in2="hardAlpha" operator="arithmetic" k2="-1" k3="1"/>
<feColorMatrix type="matrix" values="0 0 0 0 1 0 0 0 0 1 0 0 0 0 1 0 0 0 0.12 0"/>
<feBlend mode="normal" in2="shape" result="effect1_innerShadow_2_547"/>
<feColorMatrix in="SourceAlpha" type="matrix" values="0 0 0 0 0 0 0 0 0 0 0 0 0 0 0 0 0 0 127 0" result="hardAlpha"/>
<feOffset dx="7" dy="8"/>
<feGaussianBlur stdDeviation="4"/>
<feComposite in2="hardAlpha" operator="arithmetic" k2="-1" k3="1"/>
<feColorMatrix type="matrix" values="0 0 0 0 1 0 0 0 0 1 0 0 0 0 1 0 0 0 0.09 0"/>
<feBlend mode="normal" in2="effect1_innerShadow_2_547" result="effect2_innerShadow_2_547"/>
</filter>
<filter id="filter1_i_2_547" x="36.5673" y="25.8367" width="164.384" height="14.27" filterUnits="userSpaceOnUse" color-interpolation-filters="sRGB">
<feFlood flood-opacity="0" result="BackgroundImageFix"/>
<feBlend mode="normal" in="SourceGraphic" in2="BackgroundImageFix" result="shape"/>
<feColorMatrix in="SourceAlpha" type="matrix" values="0 0 0 0 0 0 0 0 0 0 0 0 0 0 0 0 0 0 127 0" result="hardAlpha"/>
<feOffset dx="0.5" dy="0.5"/>
<feGaussianBlur stdDeviation="0.5"/>
<feComposite in2="hardAlpha" operator="arithmetic" k2="-1" k3="1"/>
<feColorMatrix type="matrix" values="0 0 0 0 0 0 0 0 0 0 0 0 0 0 0 0 0 0 0.15 0"/>
<feBlend mode="normal" in2="shape" result="effect1_innerShadow_2_547"/>
</filter>
</defs>
</svg>
