<svg width="27" height="27" viewBox="0 0 27 27" fill="none" xmlns="http://www.w3.org/2000/svg">
<g clip-path="url(#clip0_2_23)">
<path d="M1.6876 1.83733C-0.434148 4.0412 0.000102088 6.38233 0.000102088 13.4946C0.000102088 19.4008 -1.0304 25.3217 4.36285 26.7156C6.04698 27.1487 20.969 27.1487 22.6509 26.7133C24.8963 26.134 26.7233 24.3126 26.9731 21.1367C27.008 20.6935 27.008 6.30358 26.972 5.85133C26.7065 2.46845 24.6241 0.51883 21.8802 0.123955C21.2513 0.0328298 21.1253 0.00582978 17.8988 0.000204783C6.45423 0.00582978 3.94548 -0.503795 1.6876 1.83733Z" fill="url(#paint0_linear_2_23)"/>
<path d="M13.4973 3.53159C9.41238 3.53159 5.53338 3.16822 4.05175 6.97072C3.43975 8.54122 3.52863 10.5808 3.52863 13.5013C3.52863 16.0641 3.4465 18.4727 4.05175 20.0308C5.53 23.8356 9.4405 23.4711 13.495 23.4711C17.4066 23.4711 21.4398 23.8783 22.9394 20.0308C23.5525 18.4446 23.4625 16.4353 23.4625 13.5013C23.4625 9.6066 23.6774 7.09222 21.7885 5.20447C19.876 3.29197 17.2896 3.53159 13.4928 3.53159H13.4973ZM12.604 5.32822C21.1248 5.31472 22.2093 4.36747 21.6108 17.5266C21.3981 22.1807 17.8544 21.67 13.4984 21.67C5.55588 21.67 5.3275 21.4427 5.3275 13.4968C5.3275 5.45872 5.9575 5.33272 12.604 5.32597V5.32822ZM18.8185 6.98309C18.1581 6.98309 17.6226 7.51859 17.6226 8.17897C17.6226 8.83934 18.1581 9.37484 18.8185 9.37484C19.4789 9.37484 20.0144 8.83934 20.0144 8.17897C20.0144 7.51859 19.4789 6.98309 18.8185 6.98309ZM13.4973 8.38147C10.6701 8.38147 8.3785 10.6742 8.3785 13.5013C8.3785 16.3285 10.6701 18.6201 13.4973 18.6201C16.3244 18.6201 18.6149 16.3285 18.6149 13.5013C18.6149 10.6742 16.3244 8.38147 13.4973 8.38147ZM13.4973 10.1781C17.8904 10.1781 17.896 16.8246 13.4973 16.8246C9.10525 16.8246 9.0985 10.1781 13.4973 10.1781Z" fill="white"/>
</g>
<defs>
<linearGradient id="paint0_linear_2_23" x1="1.73937" y1="25.2757" x2="26.833" y2="3.55743" gradientUnits="userSpaceOnUse">
<stop stop-color="#FFDD55"/>
<stop offset="0.5" stop-color="#FF543E"/>
<stop offset="1" stop-color="#C837AB"/>
</linearGradient>
<clipPath id="clip0_2_23">
<rect width="27" height="27" fill="white"/>
</clipPath>
</defs>
</svg>
