<svg width="251" height="88" viewBox="0 0 251 88" fill="none" xmlns="http://www.w3.org/2000/svg">
<g filter="url(#filter0_ii_2_479)">
<path d="M11.6708 2.58771C142.403 1.8041 109.206 1.8041 239.937 2.5877C244.261 2.6142 248.389 6.7603 248.967 11.8457C251.465 33.9484 251.465 56.0511 248.967 78.1548C248.389 83.2402 244.261 87.3858 239.937 87.4123C109.206 88.1959 142.403 88.1959 11.6708 87.4123C7.34675 87.3858 3.21863 83.2402 2.64164 78.1548C0.142891 56.0511 0.142891 33.9484 2.64164 11.8457C3.21863 6.7603 7.34675 2.61421 11.6708 2.58771Z" fill="url(#paint0_linear_2_479)"/>
<path d="M11.6708 2.58771C142.403 1.8041 109.206 1.8041 239.937 2.5877C244.261 2.6142 248.389 6.7603 248.967 11.8457C251.465 33.9484 251.465 56.0511 248.967 78.1548C248.389 83.2402 244.261 87.3858 239.937 87.4123C109.206 88.1959 142.403 88.1959 11.6708 87.4123C7.34675 87.3858 3.21863 83.2402 2.64164 78.1548C0.142891 56.0511 0.142891 33.9484 2.64164 11.8457C3.21863 6.7603 7.34675 2.61421 11.6708 2.58771Z" fill="url(#paint1_linear_2_479)"/>
<path d="M11.6708 2.58771C142.403 1.8041 109.206 1.8041 239.937 2.5877C244.261 2.6142 248.389 6.7603 248.967 11.8457C251.465 33.9484 251.465 56.0511 248.967 78.1548C248.389 83.2402 244.261 87.3858 239.937 87.4123C109.206 88.1959 142.403 88.1959 11.6708 87.4123C7.34675 87.3858 3.21863 83.2402 2.64164 78.1548C0.142891 56.0511 0.142891 33.9484 2.64164 11.8457C3.21863 6.7603 7.34675 2.61421 11.6708 2.58771Z" fill="black" fill-opacity="0.24"/>
</g>
<g filter="url(#filter1_ii_2_479)">
<path d="M11.6708 0.587739C142.403 -0.195864 109.206 -0.195938 239.937 0.587666C244.261 0.614165 248.389 4.76026 248.967 9.84564C251.465 31.9484 251.465 54.0511 248.967 76.1548C248.389 81.2401 244.261 85.3858 239.937 85.4123C109.206 86.1959 142.403 86.1959 11.6708 85.4123C7.34675 85.3858 3.21863 81.2402 2.64164 76.1548C0.142891 54.0511 0.142891 31.9484 2.64164 9.84571C3.21863 4.76033 7.34675 0.614238 11.6708 0.587739Z" fill="url(#paint2_linear_2_479)"/>
<path d="M11.6708 0.587739C142.403 -0.195864 109.206 -0.195938 239.937 0.587666C244.261 0.614165 248.389 4.76026 248.967 9.84564C251.465 31.9484 251.465 54.0511 248.967 76.1548C248.389 81.2401 244.261 85.3858 239.937 85.4123C109.206 86.1959 142.403 86.1959 11.6708 85.4123C7.34675 85.3858 3.21863 81.2402 2.64164 76.1548C0.142891 54.0511 0.142891 31.9484 2.64164 9.84571C3.21863 4.76033 7.34675 0.614238 11.6708 0.587739Z" fill="url(#paint3_linear_2_479)"/>
</g>
<g filter="url(#filter2_i_2_479)">
<path d="M85.4629 40.7267L85.2829 39.0767C86.1829 38.8867 87.2779 38.7917 88.5679 38.7917C89.9079 38.7917 90.8379 38.9817 91.3579 39.3617C91.8779 39.7317 92.1379 40.4417 92.1379 41.4917C92.1379 42.2417 91.9979 42.8117 91.7179 43.2017C91.4379 43.5817 90.9879 43.8017 90.3679 43.8617V43.9217C91.1179 43.9917 91.6529 44.2567 91.9729 44.7167C92.2929 45.1667 92.4529 45.8217 92.4529 46.6817C92.4529 47.7117 92.1929 48.4217 91.6729 48.8117C91.1529 49.1917 90.2729 49.3817 89.0329 49.3817C87.4329 49.3817 86.1129 49.2317 85.0729 48.9317L85.2379 47.3567C86.4379 47.5467 87.5579 47.6417 88.5979 47.6417C89.1879 47.6417 89.5829 47.5517 89.7829 47.3717C89.9929 47.1817 90.0979 46.8067 90.0979 46.2467C90.0979 45.6467 89.9879 45.2417 89.7679 45.0317C89.5579 44.8217 89.1479 44.7067 88.5379 44.6867H86.5429V43.0817H88.5229C89.0429 43.0817 89.3979 42.9967 89.5879 42.8267C89.7779 42.6467 89.8729 42.3067 89.8729 41.8067C89.8729 41.2967 89.7679 40.9567 89.5579 40.7867C89.3579 40.6167 88.9779 40.5317 88.4179 40.5317C87.6379 40.5317 86.6529 40.5967 85.4629 40.7267ZM101.279 46.5467H97.7244L96.9744 49.2617H94.6344L97.6194 39.5117C97.6594 39.3317 97.7544 39.1867 97.9044 39.0767C98.0544 38.9667 98.2244 38.9117 98.4144 38.9117H100.574C101.004 38.9117 101.269 39.1117 101.369 39.5117L104.354 49.2617H102.029L101.279 46.5467ZM100.784 44.7767L99.9144 41.6117C99.7944 41.1117 99.7244 40.7867 99.7044 40.6367H99.2994C99.2794 40.7367 99.2444 40.8967 99.1944 41.1167C99.1444 41.3367 99.1044 41.5017 99.0744 41.6117L98.2044 44.7767H100.784ZM111.605 43.8317V43.8917C111.795 43.9217 111.97 43.9567 112.13 43.9967C112.29 44.0267 112.44 44.0817 112.58 44.1617C112.73 44.2417 112.86 44.3117 112.97 44.3717C113.08 44.4317 113.19 44.5417 113.3 44.7017C113.42 44.8517 113.515 44.9717 113.585 45.0617C113.665 45.1517 113.755 45.3167 113.855 45.5567C113.965 45.7967 114.05 45.9867 114.11 46.1267C114.17 46.2567 114.255 46.4917 114.365 46.8317C114.485 47.1717 114.575 47.4367 114.635 47.6267C114.695 47.8067 114.795 48.1167 114.935 48.5567C115.035 48.8667 115.11 49.1017 115.16 49.2617H112.775C112.215 47.4317 111.835 46.3117 111.635 45.9017C111.325 45.2717 110.935 44.8967 110.465 44.7767C110.285 44.7267 110.08 44.7017 109.85 44.7017H109.115C109.195 45.0717 109.235 45.4017 109.235 45.6917V49.2617H106.955V38.9117H109.235V41.8367C109.235 42.2267 109.195 42.6367 109.115 43.0667H109.82C110.53 43.0667 111.04 42.7967 111.35 42.2567C111.67 41.7167 112.06 40.6517 112.52 39.0617C112.54 38.9917 112.555 38.9417 112.565 38.9117H114.89C114.33 40.6717 113.975 41.7167 113.825 42.0467C113.475 42.8267 113.035 43.3417 112.505 43.5917C112.255 43.7017 111.955 43.7817 111.605 43.8317ZM123.601 46.5467H120.046L119.296 49.2617H116.956L119.941 39.5117C119.981 39.3317 120.076 39.1867 120.226 39.0767C120.376 38.9667 120.546 38.9117 120.736 38.9117H122.896C123.326 38.9117 123.591 39.1117 123.691 39.5117L126.676 49.2617H124.351L123.601 46.5467ZM123.106 44.7767L122.236 41.6117C122.116 41.1117 122.046 40.7867 122.026 40.6367H121.621C121.601 40.7367 121.566 40.8967 121.516 41.1167C121.466 41.3367 121.426 41.5017 121.396 41.6117L120.526 44.7767H123.106ZM129.022 40.7267L128.842 39.0767C129.742 38.8867 130.837 38.7917 132.127 38.7917C133.467 38.7917 134.397 38.9817 134.917 39.3617C135.437 39.7317 135.697 40.4417 135.697 41.4917C135.697 42.2417 135.557 42.8117 135.277 43.2017C134.997 43.5817 134.547 43.8017 133.927 43.8617V43.9217C134.677 43.9917 135.212 44.2567 135.532 44.7167C135.852 45.1667 136.012 45.8217 136.012 46.6817C136.012 47.7117 135.752 48.4217 135.232 48.8117C134.712 49.1917 133.832 49.3817 132.592 49.3817C130.992 49.3817 129.672 49.2317 128.632 48.9317L128.797 47.3567C129.997 47.5467 131.117 47.6417 132.157 47.6417C132.747 47.6417 133.142 47.5517 133.342 47.3717C133.552 47.1817 133.657 46.8067 133.657 46.2467C133.657 45.6467 133.547 45.2417 133.327 45.0317C133.117 44.8217 132.707 44.7067 132.097 44.6867H130.102V43.0817H132.082C132.602 43.0817 132.957 42.9967 133.147 42.8267C133.337 42.6467 133.432 42.3067 133.432 41.8067C133.432 41.2967 133.327 40.9567 133.117 40.7867C132.917 40.6167 132.537 40.5317 131.977 40.5317C131.197 40.5317 130.212 40.5967 129.022 40.7267ZM144.838 46.5467H141.283L140.533 49.2617H138.193L141.178 39.5117C141.218 39.3317 141.313 39.1867 141.463 39.0767C141.613 38.9667 141.783 38.9117 141.973 38.9117H144.133C144.563 38.9117 144.828 39.1117 144.928 39.5117L147.913 49.2617H145.588L144.838 46.5467ZM144.343 44.7767L143.473 41.6117C143.353 41.1117 143.283 40.7867 143.263 40.6367H142.858C142.838 40.7367 142.803 40.8967 142.753 41.1167C142.703 41.3367 142.663 41.5017 142.633 41.6117L141.763 44.7767H144.343ZM157.329 40.7717H154.239V49.2617H151.944V40.7717H148.854V38.9117H157.329V40.7717ZM162.453 42.7517H163.983C165.403 42.7517 166.383 42.9917 166.923 43.4717C167.473 43.9517 167.748 44.8267 167.748 46.0967C167.748 47.3467 167.493 48.2067 166.983 48.6767C166.473 49.1467 165.603 49.3817 164.373 49.3817C162.563 49.3817 161.183 49.3417 160.233 49.2617H160.173V38.9117H162.453V42.7517ZM162.453 47.6117H163.983C164.593 47.6117 164.988 47.5117 165.168 47.3117C165.358 47.1017 165.453 46.6717 165.453 46.0217C165.453 45.3717 165.358 44.9317 165.168 44.7017C164.988 44.4717 164.593 44.3567 163.983 44.3567H162.453V47.6117Z" fill="white"/>
</g>
<defs>
<filter id="filter0_ii_2_479" x="-3.23242" y="-2" width="257.073" height="93" filterUnits="userSpaceOnUse" color-interpolation-filters="sRGB">
<feFlood flood-opacity="0" result="BackgroundImageFix"/>
<feBlend mode="normal" in="SourceGraphic" in2="BackgroundImageFix" result="shape"/>
<feColorMatrix in="SourceAlpha" type="matrix" values="0 0 0 0 0 0 0 0 0 0 0 0 0 0 0 0 0 0 127 0" result="hardAlpha"/>
<feOffset dx="3" dy="3"/>
<feGaussianBlur stdDeviation="4"/>
<feComposite in2="hardAlpha" operator="arithmetic" k2="-1" k3="1"/>
<feColorMatrix type="matrix" values="0 0 0 0 1 0 0 0 0 1 0 0 0 0 1 0 0 0 0.12 0"/>
<feBlend mode="normal" in2="shape" result="effect1_innerShadow_2_479"/>
<feColorMatrix in="SourceAlpha" type="matrix" values="0 0 0 0 0 0 0 0 0 0 0 0 0 0 0 0 0 0 127 0" result="hardAlpha"/>
<feOffset dx="-4" dy="-4"/>
<feGaussianBlur stdDeviation="4"/>
<feComposite in2="hardAlpha" operator="arithmetic" k2="-1" k3="1"/>
<feColorMatrix type="matrix" values="0 0 0 0 1 0 0 0 0 1 0 0 0 0 1 0 0 0 0.12 0"/>
<feBlend mode="normal" in2="effect1_innerShadow_2_479" result="effect2_innerShadow_2_479"/>
</filter>
<filter id="filter1_ii_2_479" x="-4.23242" y="-2" width="262.073" height="96" filterUnits="userSpaceOnUse" color-interpolation-filters="sRGB">
<feFlood flood-opacity="0" result="BackgroundImageFix"/>
<feBlend mode="normal" in="SourceGraphic" in2="BackgroundImageFix" result="shape"/>
<feColorMatrix in="SourceAlpha" type="matrix" values="0 0 0 0 0 0 0 0 0 0 0 0 0 0 0 0 0 0 127 0" result="hardAlpha"/>
<feOffset dx="-5" dy="-2"/>
<feGaussianBlur stdDeviation="4"/>
<feComposite in2="hardAlpha" operator="arithmetic" k2="-1" k3="1"/>
<feColorMatrix type="matrix" values="0 0 0 0 1 0 0 0 0 1 0 0 0 0 1 0 0 0 0.12 0"/>
<feBlend mode="normal" in2="shape" result="effect1_innerShadow_2_479"/>
<feColorMatrix in="SourceAlpha" type="matrix" values="0 0 0 0 0 0 0 0 0 0 0 0 0 0 0 0 0 0 127 0" result="hardAlpha"/>
<feOffset dx="7" dy="8"/>
<feGaussianBlur stdDeviation="4"/>
<feComposite in2="hardAlpha" operator="arithmetic" k2="-1" k3="1"/>
<feColorMatrix type="matrix" values="0 0 0 0 1 0 0 0 0 1 0 0 0 0 1 0 0 0 0.09 0"/>
<feBlend mode="normal" in2="effect1_innerShadow_2_479" result="effect2_innerShadow_2_479"/>
</filter>
<filter id="filter2_i_2_479" x="85.0729" y="38.7917" width="83.1751" height="11.0901" filterUnits="userSpaceOnUse" color-interpolation-filters="sRGB">
<feFlood flood-opacity="0" result="BackgroundImageFix"/>
<feBlend mode="normal" in="SourceGraphic" in2="BackgroundImageFix" result="shape"/>
<feColorMatrix in="SourceAlpha" type="matrix" values="0 0 0 0 0 0 0 0 0 0 0 0 0 0 0 0 0 0 127 0" result="hardAlpha"/>
<feOffset dx="0.5" dy="0.5"/>
<feGaussianBlur stdDeviation="0.5"/>
<feComposite in2="hardAlpha" operator="arithmetic" k2="-1" k3="1"/>
<feColorMatrix type="matrix" values="0 0 0 0 0 0 0 0 0 0 0 0 0 0 0 0 0 0 0.15 0"/>
<feBlend mode="normal" in2="shape" result="effect1_innerShadow_2_479"/>
</filter>
<linearGradient id="paint0_linear_2_479" x1="398.518" y1="76.7831" x2="344.337" y2="-63.3413" gradientUnits="userSpaceOnUse">
<stop stop-color="#EB235F"/>
<stop offset="1" stop-color="#FF134C"/>
</linearGradient>
<linearGradient id="paint1_linear_2_479" x1="-30.8184" y1="-116.873" x2="101.546" y2="96.7801" gradientUnits="userSpaceOnUse">
<stop stop-color="#FF88A5"/>
<stop offset="1" stop-color="#FF8888" stop-opacity="0"/>
</linearGradient>
<linearGradient id="paint2_linear_2_479" x1="398.518" y1="74.7833" x2="344.338" y2="-65.341" gradientUnits="userSpaceOnUse">
<stop stop-color="#EB235F"/>
<stop offset="1" stop-color="#FF134C"/>
</linearGradient>
<linearGradient id="paint3_linear_2_479" x1="-30.8182" y1="-118.873" x2="101.547" y2="94.7802" gradientUnits="userSpaceOnUse">
<stop stop-color="#FF88A5"/>
<stop offset="1" stop-color="#FF8888" stop-opacity="0"/>
</linearGradient>
</defs>
</svg>
