<svg width="295" height="85" viewBox="0 0 295 85" fill="none" xmlns="http://www.w3.org/2000/svg">
<g filter="url(#filter0_ii_2_538)">
<path d="M10.1422 4.47947C131.748 3.7487 162.291 3.7487 283.897 4.47947C287.919 4.50418 291.759 8.37072 292.296 13.1132C294.619 33.7256 294.619 54.338 292.296 74.9513C291.759 79.6937 287.919 83.5598 283.897 83.5845C162.291 84.3153 131.748 84.3153 10.1422 83.5845C6.11992 83.5598 2.27996 79.6937 1.74324 74.9513C-0.581081 54.338 -0.581081 33.7256 1.74324 13.1132C2.27996 8.37072 6.11992 4.50418 10.1422 4.47947Z" fill="url(#paint0_linear_2_538)"/>
<path d="M10.1422 4.47947C131.748 3.7487 162.291 3.7487 283.897 4.47947C287.919 4.50418 291.759 8.37072 292.296 13.1132C294.619 33.7256 294.619 54.338 292.296 74.9513C291.759 79.6937 287.919 83.5598 283.897 83.5845C162.291 84.3153 131.748 84.3153 10.1422 83.5845C6.11992 83.5598 2.27996 79.6937 1.74324 74.9513C-0.581081 54.338 -0.581081 33.7256 1.74324 13.1132C2.27996 8.37072 6.11992 4.50418 10.1422 4.47947Z" fill="black" fill-opacity="0.15"/>
</g>
<g filter="url(#filter1_ii_2_538)">
<path d="M10.1422 0.548075C131.748 -0.182692 162.291 -0.182692 283.897 0.548075C287.919 0.572787 291.759 4.43932 292.296 9.1818C294.619 29.7942 294.619 50.4066 292.296 71.0199C291.759 75.7623 287.919 79.6284 283.897 79.6531C162.291 80.3839 131.748 80.3839 10.1422 79.6531C6.11992 79.6284 2.27996 75.7623 1.74324 71.0199C-0.581081 50.4066 -0.581081 29.7942 1.74324 9.1818C2.27996 4.43932 6.11992 0.572787 10.1422 0.548075Z" fill="url(#paint1_linear_2_538)"/>
<path d="M10.1422 0.548075C131.748 -0.182692 162.291 -0.182692 283.897 0.548075C287.919 0.572787 291.759 4.43932 292.296 9.1818C294.619 29.7942 294.619 50.4066 292.296 71.0199C291.759 75.7623 287.919 79.6284 283.897 79.6531C162.291 80.3839 131.748 80.3839 10.1422 79.6531C6.11992 79.6284 2.27996 75.7623 1.74324 71.0199C-0.581081 50.4066 -0.581081 29.7942 1.74324 9.1818C2.27996 4.43932 6.11992 0.572787 10.1422 0.548075Z" fill="url(#paint2_linear_2_538)"/>
</g>
<g filter="url(#filter2_i_2_538)">
<path d="M69.9113 37.0614C70.5613 36.2914 71.7163 35.9064 73.3763 35.9064C75.0363 35.9064 76.1913 36.2914 76.8413 37.0614C77.4913 37.8214 77.8163 39.2264 77.8163 41.2764C77.8163 43.3264 77.4913 44.7364 76.8413 45.5064C76.1913 46.2664 75.0363 46.6464 73.3763 46.6464C71.7163 46.6464 70.5613 46.2664 69.9113 45.5064C69.2713 44.7364 68.9513 43.3264 68.9513 41.2764C68.9513 39.2264 69.2713 37.8214 69.9113 37.0614ZM74.9663 38.4864C74.6863 37.9964 74.1563 37.7514 73.3763 37.7514C72.5963 37.7514 72.0613 37.9964 71.7713 38.4864C71.4913 38.9764 71.3513 39.9064 71.3513 41.2764C71.3513 42.6464 71.4913 43.5764 71.7713 44.0664C72.0613 44.5564 72.5963 44.8014 73.3763 44.8014C74.1563 44.8014 74.6863 44.5564 74.9663 44.0664C75.2563 43.5764 75.4013 42.6464 75.4013 41.2764C75.4013 39.9064 75.2563 38.9764 74.9663 38.4864ZM83.3602 40.3014H84.9352C86.3652 40.3014 87.3602 40.5314 87.9202 40.9914C88.4802 41.4414 88.7602 42.2614 88.7602 43.4514C88.7602 44.1214 88.6852 44.6664 88.5352 45.0864C88.3852 45.5064 88.1352 45.8264 87.7852 46.0464C87.4352 46.2564 87.0452 46.3964 86.6152 46.4664C86.1852 46.5464 85.6202 46.5864 84.9202 46.5864C83.4802 46.5864 82.2152 46.5414 81.1252 46.4514H81.0652V36.1014C82.1852 36.0314 83.3602 35.9964 84.5902 35.9964C85.5902 35.9964 86.7652 36.0314 88.1152 36.1014L87.9352 37.8564H83.3602V40.3014ZM83.3602 44.8314H84.9352C85.5652 44.8314 85.9752 44.7364 86.1652 44.5464C86.3652 44.3564 86.4652 43.9614 86.4652 43.3614C86.4652 42.7714 86.3652 42.3764 86.1652 42.1764C85.9752 41.9664 85.5652 41.8614 84.9352 41.8614H83.3602V44.8314ZM98.9623 44.5164L99.1573 46.2114C98.2573 46.4914 97.1523 46.6314 95.8423 46.6314C94.2423 46.6314 93.1173 46.2314 92.4673 45.4314C91.8173 44.6314 91.4923 43.2464 91.4923 41.2764C91.4923 39.3064 91.8173 37.9214 92.4673 37.1214C93.1173 36.3214 94.2423 35.9214 95.8423 35.9214C97.0023 35.9214 98.0373 36.0364 98.9473 36.2664L98.7523 37.9764C97.9423 37.9264 96.9723 37.9014 95.8423 37.9014C95.0923 37.9014 94.5773 38.1414 94.2973 38.6214C94.0273 39.0914 93.8923 39.9764 93.8923 41.2764C93.8923 42.5764 94.0273 43.4664 94.2973 43.9464C94.5773 44.4164 95.0923 44.6514 95.8423 44.6514C97.2323 44.6514 98.2723 44.6064 98.9623 44.5164ZM109.926 36.1014L107.391 43.7814C107.091 44.6914 106.751 45.3764 106.371 45.8364C105.991 46.2864 105.461 46.5414 104.781 46.6014C104.101 46.6614 103.271 46.5864 102.291 46.3764L102.546 44.7564C103.516 44.8064 104.131 44.7914 104.391 44.7114C104.661 44.6214 104.891 44.3314 105.081 43.8414L105.201 43.5114H104.646C103.976 43.5114 103.531 43.1664 103.311 42.4764L101.181 36.1014H103.521L105.156 41.5764C105.186 41.6964 105.276 41.7564 105.426 41.7564H105.801L107.586 36.1014H109.926ZM119.635 48.7164L119.455 46.4514H112.6L112.42 48.7164H110.8V44.8014H111.895C112.605 43.0314 113.055 40.8514 113.245 38.2614C113.295 37.6114 113.535 37.0914 113.965 36.7014C114.395 36.3014 114.96 36.1014 115.66 36.1014H119.905V44.8014H121.255V48.7164H119.635ZM117.625 44.8014V37.7514H116.29C115.99 37.7514 115.77 37.8214 115.63 37.9614C115.5 38.0914 115.425 38.3164 115.405 38.6364C115.285 40.0864 115.125 41.2764 114.925 42.2064C114.725 43.1364 114.43 44.0014 114.04 44.8014H117.625ZM132.69 46.4514H130.5V40.2714C130.5 39.8114 130.545 39.3464 130.635 38.8764H130.53C130.38 39.3364 130.185 39.7914 129.945 40.2414L126.45 46.4514H124.185V36.1014H126.36V42.1764C126.36 42.6064 126.32 43.0864 126.24 43.6164H126.33C126.46 43.2364 126.66 42.7864 126.93 42.2664L130.425 36.1014H132.69V46.4514ZM144.014 37.9614H140.924V46.4514H138.629V37.9614H135.539V36.1014H144.014V37.9614ZM149.138 39.9414H150.668C152.088 39.9414 153.068 40.1814 153.608 40.6614C154.158 41.1414 154.433 42.0164 154.433 43.2864C154.433 44.5364 154.178 45.3964 153.668 45.8664C153.158 46.3364 152.288 46.5714 151.058 46.5714C149.248 46.5714 147.868 46.5314 146.918 46.4514H146.858V36.1014H149.138V39.9414ZM149.138 44.8014H150.668C151.278 44.8014 151.673 44.7014 151.853 44.5014C152.043 44.2914 152.138 43.8614 152.138 43.2114C152.138 42.5614 152.043 42.1214 151.853 41.8914C151.673 41.6614 151.278 41.5464 150.668 41.5464H149.138V44.8014ZM170.469 36.1014V46.4514H168.189V37.7514H164.559V46.4514H162.279V36.1014H170.469ZM174.121 46.4514V36.1014C175.051 36.0114 176.366 35.9664 178.066 35.9664C179.506 35.9664 180.491 36.2014 181.021 36.6714C181.561 37.1414 181.831 38.0314 181.831 39.3414C181.831 40.6514 181.576 41.5464 181.066 42.0264C180.566 42.4964 179.666 42.7314 178.366 42.7314C177.706 42.7314 177.056 42.6914 176.416 42.6114V46.4514H174.121ZM176.416 40.9764H178.006C178.606 40.9664 179.011 40.8514 179.221 40.6314C179.431 40.4114 179.536 39.9814 179.536 39.3414C179.536 38.7014 179.431 38.2714 179.221 38.0514C179.011 37.8314 178.606 37.7214 178.006 37.7214L176.416 37.7364V40.9764ZM185.464 37.0614C186.114 36.2914 187.269 35.9064 188.929 35.9064C190.589 35.9064 191.744 36.2914 192.394 37.0614C193.044 37.8214 193.369 39.2264 193.369 41.2764C193.369 43.3264 193.044 44.7364 192.394 45.5064C191.744 46.2664 190.589 46.6464 188.929 46.6464C187.269 46.6464 186.114 46.2664 185.464 45.5064C184.824 44.7364 184.504 43.3264 184.504 41.2764C184.504 39.2264 184.824 37.8214 185.464 37.0614ZM190.519 38.4864C190.239 37.9964 189.709 37.7514 188.929 37.7514C188.149 37.7514 187.614 37.9964 187.324 38.4864C187.044 38.9764 186.904 39.9064 186.904 41.2764C186.904 42.6464 187.044 43.5764 187.324 44.0664C187.614 44.5564 188.149 44.8014 188.929 44.8014C189.709 44.8014 190.239 44.5564 190.519 44.0664C190.809 43.5764 190.954 42.6464 190.954 41.2764C190.954 39.9064 190.809 38.9764 190.519 38.4864ZM203.503 44.6664L203.593 46.3464C202.663 46.4464 201.063 46.4964 198.793 46.4964C198.103 46.4964 197.553 46.3114 197.143 45.9414C196.733 45.5614 196.528 45.0514 196.528 44.4114V38.1414C196.528 37.5014 196.733 36.9964 197.143 36.6264C197.563 36.2464 198.113 36.0564 198.793 36.0564C201.063 36.0564 202.663 36.1064 203.593 36.2064L203.503 37.9014H199.513C199.263 37.9014 199.083 37.9614 198.973 38.0814C198.863 38.2014 198.808 38.3964 198.808 38.6664V40.2414H202.933V41.8914H198.808V43.8864C198.808 44.1664 198.863 44.3664 198.973 44.4864C199.083 44.6064 199.263 44.6664 199.513 44.6664H203.503ZM211.44 41.0214V41.0814C211.63 41.1114 211.805 41.1464 211.965 41.1864C212.125 41.2164 212.275 41.2714 212.415 41.3514C212.565 41.4314 212.695 41.5014 212.805 41.5614C212.915 41.6214 213.025 41.7314 213.135 41.8914C213.255 42.0414 213.35 42.1614 213.42 42.2514C213.5 42.3414 213.59 42.5064 213.69 42.7464C213.8 42.9864 213.885 43.1764 213.945 43.3164C214.005 43.4464 214.09 43.6814 214.2 44.0214C214.32 44.3614 214.41 44.6264 214.47 44.8164C214.53 44.9964 214.63 45.3064 214.77 45.7464C214.87 46.0564 214.945 46.2914 214.995 46.4514H212.61C212.05 44.6214 211.67 43.5014 211.47 43.0914C211.16 42.4614 210.77 42.0864 210.3 41.9664C210.12 41.9164 209.915 41.8914 209.685 41.8914H208.95C209.03 42.2614 209.07 42.5914 209.07 42.8814V46.4514H206.79V36.1014H209.07V39.0264C209.07 39.4164 209.03 39.8264 208.95 40.2564H209.655C210.365 40.2564 210.875 39.9864 211.185 39.4464C211.505 38.9064 211.895 37.8414 212.355 36.2514C212.375 36.1814 212.39 36.1314 212.4 36.1014H214.725C214.165 37.8614 213.81 38.9064 213.66 39.2364C213.31 40.0164 212.87 40.5314 212.34 40.7814C212.09 40.8914 211.79 40.9714 211.44 41.0214ZM225.521 37.9614H222.431V46.4514H220.136V37.9614H217.046V36.1014H225.521V37.9614Z" fill="white"/>
</g>
<defs>
<filter id="filter0_ii_2_538" x="-4" y="-0.0686035" width="301.038" height="87.2012" filterUnits="userSpaceOnUse" color-interpolation-filters="sRGB">
<feFlood flood-opacity="0" result="BackgroundImageFix"/>
<feBlend mode="normal" in="SourceGraphic" in2="BackgroundImageFix" result="shape"/>
<feColorMatrix in="SourceAlpha" type="matrix" values="0 0 0 0 0 0 0 0 0 0 0 0 0 0 0 0 0 0 127 0" result="hardAlpha"/>
<feOffset dx="3" dy="3"/>
<feGaussianBlur stdDeviation="4"/>
<feComposite in2="hardAlpha" operator="arithmetic" k2="-1" k3="1"/>
<feColorMatrix type="matrix" values="0 0 0 0 1 0 0 0 0 1 0 0 0 0 1 0 0 0 0.12 0"/>
<feBlend mode="normal" in2="shape" result="effect1_innerShadow_2_538"/>
<feColorMatrix in="SourceAlpha" type="matrix" values="0 0 0 0 0 0 0 0 0 0 0 0 0 0 0 0 0 0 127 0" result="hardAlpha"/>
<feOffset dx="-4" dy="-4"/>
<feGaussianBlur stdDeviation="4"/>
<feComposite in2="hardAlpha" operator="arithmetic" k2="-1" k3="1"/>
<feColorMatrix type="matrix" values="0 0 0 0 1 0 0 0 0 1 0 0 0 0 1 0 0 0 0.12 0"/>
<feBlend mode="normal" in2="effect1_innerShadow_2_538" result="effect2_innerShadow_2_538"/>
</filter>
<filter id="filter1_ii_2_538" x="-5" y="-2" width="306.038" height="90.2012" filterUnits="userSpaceOnUse" color-interpolation-filters="sRGB">
<feFlood flood-opacity="0" result="BackgroundImageFix"/>
<feBlend mode="normal" in="SourceGraphic" in2="BackgroundImageFix" result="shape"/>
<feColorMatrix in="SourceAlpha" type="matrix" values="0 0 0 0 0 0 0 0 0 0 0 0 0 0 0 0 0 0 127 0" result="hardAlpha"/>
<feOffset dx="-5" dy="-2"/>
<feGaussianBlur stdDeviation="4"/>
<feComposite in2="hardAlpha" operator="arithmetic" k2="-1" k3="1"/>
<feColorMatrix type="matrix" values="0 0 0 0 1 0 0 0 0 1 0 0 0 0 1 0 0 0 0.12 0"/>
<feBlend mode="normal" in2="shape" result="effect1_innerShadow_2_538"/>
<feColorMatrix in="SourceAlpha" type="matrix" values="0 0 0 0 0 0 0 0 0 0 0 0 0 0 0 0 0 0 127 0" result="hardAlpha"/>
<feOffset dx="7" dy="8"/>
<feGaussianBlur stdDeviation="4"/>
<feComposite in2="hardAlpha" operator="arithmetic" k2="-1" k3="1"/>
<feColorMatrix type="matrix" values="0 0 0 0 1 0 0 0 0 1 0 0 0 0 1 0 0 0 0.09 0"/>
<feBlend mode="normal" in2="effect1_innerShadow_2_538" result="effect2_innerShadow_2_538"/>
</filter>
<filter id="filter2_i_2_538" x="68.9513" y="35.9065" width="157.069" height="13.3098" filterUnits="userSpaceOnUse" color-interpolation-filters="sRGB">
<feFlood flood-opacity="0" result="BackgroundImageFix"/>
<feBlend mode="normal" in="SourceGraphic" in2="BackgroundImageFix" result="shape"/>
<feColorMatrix in="SourceAlpha" type="matrix" values="0 0 0 0 0 0 0 0 0 0 0 0 0 0 0 0 0 0 127 0" result="hardAlpha"/>
<feOffset dx="0.5" dy="0.5"/>
<feGaussianBlur stdDeviation="0.5"/>
<feComposite in2="hardAlpha" operator="arithmetic" k2="-1" k3="1"/>
<feColorMatrix type="matrix" values="0 0 0 0 0 0 0 0 0 0 0 0 0 0 0 0 0 0 0.15 0"/>
<feBlend mode="normal" in2="shape" result="effect1_innerShadow_2_538"/>
</filter>
<linearGradient id="paint0_linear_2_538" x1="369.986" y1="73.672" x2="319.363" y2="-56.9172" gradientUnits="userSpaceOnUse">
<stop stop-color="#EB235F"/>
<stop offset="1" stop-color="#FF134C"/>
</linearGradient>
<linearGradient id="paint1_linear_2_538" x1="369.986" y1="69.7406" x2="319.363" y2="-60.8486" gradientUnits="userSpaceOnUse">
<stop stop-color="#EB235F"/>
<stop offset="1" stop-color="#FF134C"/>
</linearGradient>
<linearGradient id="paint2_linear_2_538" x1="-29.3811" y1="-110.857" x2="94.1986" y2="88.1069" gradientUnits="userSpaceOnUse">
<stop stop-color="#FF88A5"/>
<stop offset="1" stop-color="#FF8888" stop-opacity="0"/>
</linearGradient>
</defs>
</svg>
