<svg width="18" height="18" viewBox="0 0 18 18" fill="none" xmlns="http://www.w3.org/2000/svg">
<path d="M9 18C13.9706 18 18 13.9706 18 9C18 4.02944 13.9706 0 9 0C4.02944 0 0 4.02944 0 9C0 13.9706 4.02944 18 9 18Z" fill="#039BE5"/>
<path d="M4.1182 8.80515L12.7957 5.45941C13.1985 5.31391 13.5502 5.55766 13.4197 6.16666L13.4205 6.16591L11.943 13.1267C11.8335 13.6202 11.5402 13.7402 11.13 13.5077L8.87995 11.8494L7.7947 12.8949C7.6747 13.0149 7.57345 13.1162 7.34095 13.1162L7.5007 10.8264L11.6707 7.05916C11.8522 6.89941 11.6302 6.80941 11.391 6.96841L6.2377 10.2129L4.0162 9.5199C3.53395 9.3669 3.52345 9.03765 4.1182 8.80515Z" fill="white"/>
</svg>
