<svg width="340" height="97" viewBox="0 0 340 97" fill="none" xmlns="http://www.w3.org/2000/svg">
<g filter="url(#filter0_ii_2_112)">
<path d="M11.6933 5.16461C151.898 4.32208 187.111 4.32208 327.316 5.16461C331.953 5.1931 336.381 9.65099 337 15.1188C339.679 38.8837 339.679 62.6485 337 86.4144C336.381 91.8822 331.953 96.3396 327.316 96.3681C187.111 97.2106 151.898 97.2106 11.6933 96.3681C7.0559 96.3396 2.62866 91.8822 2.00986 86.4144C-0.669952 62.6485 -0.669952 38.8837 2.00986 15.1188C2.62866 9.65099 7.0559 5.1931 11.6933 5.16461Z" fill="url(#paint0_linear_2_112)"/>
<path d="M11.6933 5.16461C151.898 4.32208 187.111 4.32208 327.316 5.16461C331.953 5.1931 336.381 9.65099 337 15.1188C339.679 38.8837 339.679 62.6485 337 86.4144C336.381 91.8822 331.953 96.3396 327.316 96.3681C187.111 97.2106 151.898 97.2106 11.6933 96.3681C7.0559 96.3396 2.62866 91.8822 2.00986 86.4144C-0.669952 62.6485 -0.669952 38.8837 2.00986 15.1188C2.62866 9.65099 7.0559 5.1931 11.6933 5.16461Z" fill="url(#paint1_linear_2_112)"/>
<path d="M11.6933 5.16461C151.898 4.32208 187.111 4.32208 327.316 5.16461C331.953 5.1931 336.381 9.65099 337 15.1188C339.679 38.8837 339.679 62.6485 337 86.4144C336.381 91.8822 331.953 96.3396 327.316 96.3681C187.111 97.2106 151.898 97.2106 11.6933 96.3681C7.0559 96.3396 2.62866 91.8822 2.00986 86.4144C-0.669952 62.6485 -0.669952 38.8837 2.00986 15.1188C2.62866 9.65099 7.0559 5.1931 11.6933 5.16461Z" fill="black" fill-opacity="0.24"/>
</g>
<g filter="url(#filter1_ii_2_112)">
<path d="M11.6933 0.631898C151.898 -0.210633 187.111 -0.210633 327.316 0.631898C331.953 0.66039 336.381 5.11828 337 10.5861C339.679 34.351 339.679 58.1158 337 81.8817C336.381 87.3495 331.953 91.8069 327.316 91.8354C187.111 92.6779 151.898 92.6779 11.6933 91.8354C7.0559 91.8069 2.62866 87.3495 2.00986 81.8817C-0.669952 58.1158 -0.669952 34.351 2.00986 10.5861C2.62866 5.11828 7.0559 0.66039 11.6933 0.631898Z" fill="url(#paint2_linear_2_112)"/>
<path d="M11.6933 0.631898C151.898 -0.210633 187.111 -0.210633 327.316 0.631898C331.953 0.66039 336.381 5.11828 337 10.5861C339.679 34.351 339.679 58.1158 337 81.8817C336.381 87.3495 331.953 91.8069 327.316 91.8354C187.111 92.6779 151.898 92.6779 11.6933 91.8354C7.0559 91.8069 2.62866 87.3495 2.00986 81.8817C-0.669952 58.1158 -0.669952 34.351 2.00986 10.5861C2.62866 5.11828 7.0559 0.66039 11.6933 0.631898Z" fill="url(#paint3_linear_2_112)"/>
</g>
<g filter="url(#filter2_i_2_112)">
<path d="M63.27 41.9117V52.2617H60.99V43.5617H57.36V52.2617H55.08V41.9117H63.27ZM67.5214 42.8717C68.1714 42.1017 69.3264 41.7167 70.9864 41.7167C72.6464 41.7167 73.8014 42.1017 74.4514 42.8717C75.1014 43.6317 75.4264 45.0367 75.4264 47.0867C75.4264 49.1367 75.1014 50.5467 74.4514 51.3167C73.8014 52.0767 72.6464 52.4567 70.9864 52.4567C69.3264 52.4567 68.1714 52.0767 67.5214 51.3167C66.8814 50.5467 66.5614 49.1367 66.5614 47.0867C66.5614 45.0367 66.8814 43.6317 67.5214 42.8717ZM72.5764 44.2967C72.2964 43.8067 71.7664 43.5617 70.9864 43.5617C70.2064 43.5617 69.6714 43.8067 69.3814 44.2967C69.1014 44.7867 68.9614 45.7167 68.9614 47.0867C68.9614 48.4567 69.1014 49.3867 69.3814 49.8767C69.6714 50.3667 70.2064 50.6117 70.9864 50.6117C71.7664 50.6117 72.2964 50.3667 72.5764 49.8767C72.8664 49.3867 73.0114 48.4567 73.0114 47.0867C73.0114 45.7167 72.8664 44.7867 72.5764 44.2967ZM86.5835 41.9117V52.2617H84.2885V43.5617H82.9685C82.3785 43.5617 82.0635 43.8517 82.0235 44.4317C81.8935 45.9817 81.7685 47.1617 81.6485 47.9717C81.5385 48.7817 81.3685 49.4767 81.1385 50.0567C80.5285 51.7567 79.3835 52.5067 77.7035 52.3067L77.5385 50.5367C77.9285 50.4667 78.2385 50.3517 78.4685 50.1917C78.7085 50.0317 78.8935 49.7817 79.0235 49.4417C79.2235 48.9117 79.3785 48.2717 79.4885 47.5217C79.5985 46.7617 79.7135 45.6417 79.8335 44.1617C79.9435 42.6617 80.7535 41.9117 82.2635 41.9117H86.5835ZM97.9945 41.9117L95.4595 49.5917C95.1595 50.5017 94.8195 51.1867 94.4395 51.6467C94.0595 52.0967 93.5295 52.3517 92.8495 52.4117C92.1695 52.4717 91.3395 52.3967 90.3595 52.1867L90.6145 50.5667C91.5845 50.6167 92.1995 50.6017 92.4595 50.5217C92.7295 50.4317 92.9595 50.1417 93.1495 49.6517L93.2695 49.3217H92.7145C92.0445 49.3217 91.5995 48.9767 91.3795 48.2867L89.2495 41.9117H91.5895L93.2245 47.3867C93.2545 47.5067 93.3445 47.5667 93.4945 47.5667H93.8695L95.6545 41.9117H97.9945ZM108.296 41.9117V52.2617H106.016V47.9717C104.946 48.4917 103.891 48.7517 102.851 48.7517C101.961 48.7517 101.301 48.5517 100.871 48.1517C100.451 47.7417 100.241 47.1067 100.241 46.2467V41.9117H102.521V45.7517C102.511 46.1417 102.591 46.4167 102.761 46.5767C102.931 46.7367 103.236 46.8167 103.676 46.8167C104.446 46.8167 105.226 46.6617 106.016 46.3517V41.9117H108.296ZM120.465 52.2617H118.275V46.0817C118.275 45.6217 118.32 45.1567 118.41 44.6867H118.305C118.155 45.1467 117.96 45.6017 117.72 46.0517L114.225 52.2617H111.96V41.9117H114.135V47.9867C114.135 48.4167 114.095 48.8967 114.015 49.4267H114.105C114.235 49.0467 114.435 48.5967 114.705 48.0767L118.2 41.9117H120.465V52.2617ZM131.789 43.7717H128.699V52.2617H126.404V43.7717H123.314V41.9117H131.789V43.7717ZM136.913 45.7517H138.443C139.863 45.7517 140.843 45.9917 141.383 46.4717C141.933 46.9517 142.208 47.8267 142.208 49.0967C142.208 50.3467 141.953 51.2067 141.443 51.6767C140.933 52.1467 140.063 52.3817 138.833 52.3817C137.023 52.3817 135.643 52.3417 134.693 52.2617H134.633V41.9117H136.913V45.7517ZM136.913 50.6117H138.443C139.053 50.6117 139.448 50.5117 139.628 50.3117C139.818 50.1017 139.913 49.6717 139.913 49.0217C139.913 48.3717 139.818 47.9317 139.628 47.7017C139.448 47.4717 139.053 47.3567 138.443 47.3567H136.913V50.6117ZM154.705 46.8317V46.8917C154.895 46.9217 155.07 46.9567 155.23 46.9967C155.39 47.0267 155.54 47.0817 155.68 47.1617C155.83 47.2417 155.96 47.3117 156.07 47.3717C156.18 47.4317 156.29 47.5417 156.4 47.7017C156.52 47.8517 156.615 47.9717 156.685 48.0617C156.765 48.1517 156.855 48.3167 156.955 48.5567C157.065 48.7967 157.15 48.9867 157.21 49.1267C157.27 49.2567 157.355 49.4917 157.465 49.8317C157.585 50.1717 157.675 50.4367 157.735 50.6267C157.795 50.8067 157.895 51.1167 158.035 51.5567C158.135 51.8667 158.21 52.1017 158.26 52.2617H155.875C155.315 50.4317 154.935 49.3117 154.735 48.9017C154.425 48.2717 154.035 47.8967 153.565 47.7767C153.385 47.7267 153.18 47.7017 152.95 47.7017H152.215C152.295 48.0717 152.335 48.4017 152.335 48.6917V52.2617H150.055V41.9117H152.335V44.8367C152.335 45.2267 152.295 45.6367 152.215 46.0667H152.92C153.63 46.0667 154.14 45.7967 154.45 45.2567C154.77 44.7167 155.16 43.6517 155.62 42.0617C155.64 41.9917 155.655 41.9417 155.665 41.9117H157.99C157.43 43.6717 157.075 44.7167 156.925 45.0467C156.575 45.8267 156.135 46.3417 155.605 46.5917C155.355 46.7017 155.055 46.7817 154.705 46.8317ZM161.573 42.8717C162.223 42.1017 163.378 41.7167 165.038 41.7167C166.698 41.7167 167.853 42.1017 168.503 42.8717C169.153 43.6317 169.478 45.0367 169.478 47.0867C169.478 49.1367 169.153 50.5467 168.503 51.3167C167.853 52.0767 166.698 52.4567 165.038 52.4567C163.378 52.4567 162.223 52.0767 161.573 51.3167C160.933 50.5467 160.613 49.1367 160.613 47.0867C160.613 45.0367 160.933 43.6317 161.573 42.8717ZM166.628 44.2967C166.348 43.8067 165.818 43.5617 165.038 43.5617C164.258 43.5617 163.723 43.8067 163.433 44.2967C163.153 44.7867 163.013 45.7167 163.013 47.0867C163.013 48.4567 163.153 49.3867 163.433 49.8767C163.723 50.3667 164.258 50.6117 165.038 50.6117C165.818 50.6117 166.348 50.3667 166.628 49.8767C166.918 49.3867 167.063 48.4567 167.063 47.0867C167.063 45.7167 166.918 44.7867 166.628 44.2967ZM180.962 41.9117V52.2617H178.667V47.6417H175.022V52.2617H172.742V41.9117H175.022V45.8717H178.667V41.9117H180.962ZM191.723 50.3267L191.918 52.0217C191.018 52.3017 189.913 52.4417 188.603 52.4417C187.003 52.4417 185.878 52.0417 185.228 51.2417C184.578 50.4417 184.253 49.0567 184.253 47.0867C184.253 45.1167 184.578 43.7317 185.228 42.9317C185.878 42.1317 187.003 41.7317 188.603 41.7317C189.763 41.7317 190.798 41.8467 191.708 42.0767L191.513 43.7867C190.703 43.7367 189.733 43.7117 188.603 43.7117C187.853 43.7117 187.338 43.9517 187.058 44.4317C186.788 44.9017 186.653 45.7867 186.653 47.0867C186.653 48.3867 186.788 49.2767 187.058 49.7567C187.338 50.2267 187.853 50.4617 188.603 50.4617C189.993 50.4617 191.033 50.4167 191.723 50.3267ZM202.687 41.9117L200.152 49.5917C199.852 50.5017 199.512 51.1867 199.132 51.6467C198.752 52.0967 198.222 52.3517 197.542 52.4117C196.862 52.4717 196.032 52.3967 195.052 52.1867L195.307 50.5667C196.277 50.6167 196.892 50.6017 197.152 50.5217C197.422 50.4317 197.652 50.1417 197.842 49.6517L197.962 49.3217H197.407C196.737 49.3217 196.292 48.9767 196.072 48.2867L193.942 41.9117H196.282L197.917 47.3867C197.947 47.5067 198.037 47.5667 198.187 47.5667H198.562L200.347 41.9117H202.687ZM212.63 41.9117V52.2617H210.335V43.5617H209.015C208.425 43.5617 208.11 43.8517 208.07 44.4317C207.94 45.9817 207.815 47.1617 207.695 47.9717C207.585 48.7817 207.415 49.4767 207.185 50.0567C206.575 51.7567 205.43 52.5067 203.75 52.3067L203.585 50.5367C203.975 50.4667 204.285 50.3517 204.515 50.1917C204.755 50.0317 204.94 49.7817 205.07 49.4417C205.27 48.9117 205.425 48.2717 205.535 47.5217C205.645 46.7617 205.76 45.6417 205.88 44.1617C205.99 42.6617 206.8 41.9117 208.31 41.9117H212.63ZM218.551 45.7517H220.081C221.501 45.7517 222.481 45.9917 223.021 46.4717C223.571 46.9517 223.846 47.8267 223.846 49.0967C223.846 50.3467 223.591 51.2067 223.081 51.6767C222.571 52.1467 221.701 52.3817 220.471 52.3817C218.661 52.3817 217.281 52.3417 216.331 52.2617H216.271V41.9117H218.551V45.7517ZM218.551 50.6117H220.081C220.691 50.6117 221.086 50.5117 221.266 50.3117C221.456 50.1017 221.551 49.6717 221.551 49.0217C221.551 48.3717 221.456 47.9317 221.266 47.7017C221.086 47.4717 220.691 47.3567 220.081 47.3567H218.551V50.6117ZM233.493 43.7717H230.403V52.2617H228.108V43.7717H225.018V41.9117H233.493V43.7717ZM241.067 49.5467H237.512L236.762 52.2617H234.422L237.407 42.5117C237.447 42.3317 237.542 42.1867 237.692 42.0767C237.842 41.9667 238.012 41.9117 238.202 41.9117H240.362C240.792 41.9117 241.057 42.1117 241.157 42.5117L244.142 52.2617H241.817L241.067 49.5467ZM240.572 47.7767L239.702 44.6117C239.582 44.1117 239.512 43.7867 239.492 43.6367H239.087C239.067 43.7367 239.032 43.8967 238.982 44.1167C238.932 44.3367 238.892 44.5017 238.862 44.6117L237.992 47.7767H240.572ZM254.378 54.5267L254.198 52.2617H246.743V41.9117H249.023V50.6117H252.473V41.9117H254.768V50.6117H255.998V54.5267H254.378ZM267.427 52.2617H265.237V46.0817C265.237 45.6217 265.282 45.1567 265.372 44.6867H265.267C265.117 45.1467 264.922 45.6017 264.682 46.0517L261.187 52.2617H258.922V41.9117H261.097V47.9867C261.097 48.4167 261.057 48.8967 260.977 49.4267H261.067C261.197 49.0467 261.397 48.5967 261.667 48.0767L265.162 41.9117H267.427V52.2617ZM273.381 46.0817H275.301C275.391 44.4317 275.746 43.2917 276.366 42.6617C276.986 42.0317 278.011 41.7167 279.441 41.7167C281.091 41.7167 282.241 42.1017 282.891 42.8717C283.541 43.6317 283.866 45.0367 283.866 47.0867C283.866 49.1367 283.541 50.5467 282.891 51.3167C282.241 52.0767 281.091 52.4567 279.441 52.4567C277.961 52.4567 276.911 52.1167 276.291 51.4367C275.681 50.7567 275.346 49.5217 275.286 47.7317H273.381V52.2617H271.086V41.9117H273.381V46.0817ZM279.441 50.6117C280.211 50.6117 280.736 50.3667 281.016 49.8767C281.296 49.3867 281.441 48.4567 281.451 47.0867C281.441 45.7167 281.296 44.7867 281.016 44.2967C280.736 43.8067 280.211 43.5617 279.441 43.5617C278.691 43.5617 278.181 43.8067 277.911 44.2967C277.651 44.7867 277.521 45.7167 277.521 47.0867C277.521 48.4567 277.651 49.3867 277.911 49.8767C278.181 50.3667 278.691 50.6117 279.441 50.6117Z" fill="white"/>
</g>
<defs>
<filter id="filter0_ii_2_112" x="-4" y="0.532715" width="346.009" height="99.4673" filterUnits="userSpaceOnUse" color-interpolation-filters="sRGB">
<feFlood flood-opacity="0" result="BackgroundImageFix"/>
<feBlend mode="normal" in="SourceGraphic" in2="BackgroundImageFix" result="shape"/>
<feColorMatrix in="SourceAlpha" type="matrix" values="0 0 0 0 0 0 0 0 0 0 0 0 0 0 0 0 0 0 127 0" result="hardAlpha"/>
<feOffset dx="3" dy="3"/>
<feGaussianBlur stdDeviation="4"/>
<feComposite in2="hardAlpha" operator="arithmetic" k2="-1" k3="1"/>
<feColorMatrix type="matrix" values="0 0 0 0 1 0 0 0 0 1 0 0 0 0 1 0 0 0 0.12 0"/>
<feBlend mode="normal" in2="shape" result="effect1_innerShadow_2_112"/>
<feColorMatrix in="SourceAlpha" type="matrix" values="0 0 0 0 0 0 0 0 0 0 0 0 0 0 0 0 0 0 127 0" result="hardAlpha"/>
<feOffset dx="-4" dy="-4"/>
<feGaussianBlur stdDeviation="4"/>
<feComposite in2="hardAlpha" operator="arithmetic" k2="-1" k3="1"/>
<feColorMatrix type="matrix" values="0 0 0 0 1 0 0 0 0 1 0 0 0 0 1 0 0 0 0.12 0"/>
<feBlend mode="normal" in2="effect1_innerShadow_2_112" result="effect2_innerShadow_2_112"/>
</filter>
<filter id="filter1_ii_2_112" x="-5" y="-2" width="351.009" height="102.467" filterUnits="userSpaceOnUse" color-interpolation-filters="sRGB">
<feFlood flood-opacity="0" result="BackgroundImageFix"/>
<feBlend mode="normal" in="SourceGraphic" in2="BackgroundImageFix" result="shape"/>
<feColorMatrix in="SourceAlpha" type="matrix" values="0 0 0 0 0 0 0 0 0 0 0 0 0 0 0 0 0 0 127 0" result="hardAlpha"/>
<feOffset dx="-5" dy="-2"/>
<feGaussianBlur stdDeviation="4"/>
<feComposite in2="hardAlpha" operator="arithmetic" k2="-1" k3="1"/>
<feColorMatrix type="matrix" values="0 0 0 0 1 0 0 0 0 1 0 0 0 0 1 0 0 0 0.12 0"/>
<feBlend mode="normal" in2="shape" result="effect1_innerShadow_2_112"/>
<feColorMatrix in="SourceAlpha" type="matrix" values="0 0 0 0 0 0 0 0 0 0 0 0 0 0 0 0 0 0 127 0" result="hardAlpha"/>
<feOffset dx="7" dy="8"/>
<feGaussianBlur stdDeviation="4"/>
<feComposite in2="hardAlpha" operator="arithmetic" k2="-1" k3="1"/>
<feColorMatrix type="matrix" values="0 0 0 0 1 0 0 0 0 1 0 0 0 0 1 0 0 0 0.09 0"/>
<feBlend mode="normal" in2="effect1_innerShadow_2_112" result="effect2_innerShadow_2_112"/>
</filter>
<filter id="filter2_i_2_112" x="55.08" y="41.7167" width="229.286" height="13.31" filterUnits="userSpaceOnUse" color-interpolation-filters="sRGB">
<feFlood flood-opacity="0" result="BackgroundImageFix"/>
<feBlend mode="normal" in="SourceGraphic" in2="BackgroundImageFix" result="shape"/>
<feColorMatrix in="SourceAlpha" type="matrix" values="0 0 0 0 0 0 0 0 0 0 0 0 0 0 0 0 0 0 127 0" result="hardAlpha"/>
<feOffset dx="0.5" dy="0.5"/>
<feGaussianBlur stdDeviation="0.5"/>
<feComposite in2="hardAlpha" operator="arithmetic" k2="-1" k3="1"/>
<feColorMatrix type="matrix" values="0 0 0 0 0 0 0 0 0 0 0 0 0 0 0 0 0 0 0.15 0"/>
<feBlend mode="normal" in2="shape" result="effect1_innerShadow_2_112"/>
</filter>
<linearGradient id="paint0_linear_2_112" x1="426.572" y1="84.9395" x2="368.206" y2="-65.6221" gradientUnits="userSpaceOnUse">
<stop stop-color="#EB235F"/>
<stop offset="1" stop-color="#FF134C"/>
</linearGradient>
<linearGradient id="paint1_linear_2_112" x1="-33.8747" y1="-123.279" x2="108.605" y2="106.115" gradientUnits="userSpaceOnUse">
<stop stop-color="#FF88A5"/>
<stop offset="1" stop-color="#FF8888" stop-opacity="0"/>
</linearGradient>
<linearGradient id="paint2_linear_2_112" x1="426.572" y1="80.4068" x2="368.206" y2="-70.1548" gradientUnits="userSpaceOnUse">
<stop stop-color="#EB235F"/>
<stop offset="1" stop-color="#FF134C"/>
</linearGradient>
<linearGradient id="paint3_linear_2_112" x1="-33.8747" y1="-127.812" x2="108.605" y2="101.582" gradientUnits="userSpaceOnUse">
<stop stop-color="#FF88A5"/>
<stop offset="1" stop-color="#FF8888" stop-opacity="0"/>
</linearGradient>
</defs>
</svg>
