<svg width="30" height="30" viewBox="0 0 30 30" fill="none" xmlns="http://www.w3.org/2000/svg">
<path d="M15 0C6.7 0 0 6.7 0 15C0 23.3 6.7 30 15 30C23.3 30 30 23.3 30 15C30 6.7 23.3 0 15 0ZM16.6667 21.9667C16.6667 22.8667 15.9 23.6 15 23.6C14.1 23.6 13.3333 22.8667 13.3333 21.9667V13.4333C13.3333 12.5333 14.1 11.8 15 11.8C15.9 11.8 16.6667 12.5333 16.6667 13.4333V21.9667ZM15.0333 9.66667C14.1333 9.66667 13.4 8.93333 13.4 8.03333C13.4 7.13333 14.1333 6.4 15.0333 6.4C15.9333 6.4 16.6667 7.13333 16.6667 8.03333C16.6667 8.93333 15.9333 9.66667 15.0333 9.66667Z" fill="#F9C54B"/>
</svg>
