<svg width="200" height="49" viewBox="0 0 200 49" fill="none" xmlns="http://www.w3.org/2000/svg">
<path d="M109.618 24.3047C108.844 24.3047 108.122 24.92 108.018 25.6891L107.09 30.868C106.316 30.3553 105.387 30.0989 104.355 30.0989H102.549C99.4535 30.0989 96.461 32.6114 95.945 35.688L95.0163 40.8668C94.4487 43.9434 96.5642 46.4559 99.6599 46.4559H101.466C102.549 46.4559 103.633 46.1483 104.613 45.5842C104.716 46.097 105.181 46.4559 105.748 46.4559C106.522 46.4559 107.244 45.8406 107.348 45.0715L108.122 40.8668L109.05 35.688L110.805 25.6891C110.908 24.92 110.392 24.3047 109.618 24.3047ZM106.213 35.6367L105.284 40.8156C105.026 42.4051 103.478 43.687 101.879 43.687H100.124C98.5248 43.687 97.4929 42.4051 97.7509 40.8156L98.6796 35.6367C98.9376 34.0471 100.485 32.7652 102.085 32.7652H103.891C105.439 32.7652 106.522 34.0984 106.213 35.6367Z" fill="white"/>
<path d="M109.618 24.3047C108.844 24.3047 108.122 24.92 108.018 25.6891L107.09 30.868C106.316 30.3553 105.387 30.0989 104.355 30.0989H102.549C99.4535 30.0989 96.461 32.6114 95.945 35.688L95.0163 40.8668C94.4487 43.9434 96.5642 46.4559 99.6599 46.4559H101.466C102.549 46.4559 103.633 46.1483 104.613 45.5842C104.716 46.097 105.181 46.4559 105.748 46.4559C106.522 46.4559 107.244 45.8406 107.348 45.0715L108.122 40.8668L109.05 35.688L110.805 25.6891C110.908 24.92 110.392 24.3047 109.618 24.3047ZM106.213 35.6367L105.284 40.8156C105.026 42.4051 103.478 43.687 101.879 43.687H100.124C98.5248 43.687 97.4929 42.4051 97.7509 40.8156L98.6796 35.6367C98.9376 34.0471 100.485 32.7652 102.085 32.7652H103.891C105.439 32.7652 106.522 34.0984 106.213 35.6367Z" fill="url(#paint0_linear_2621_2)"/>
<path d="M134.228 30.0474H132.422C129.326 30.0474 126.334 32.5599 125.818 35.6365L124.889 40.8153C124.322 43.8919 126.437 46.4044 129.533 46.4044H131.339C134.434 46.4044 137.427 43.8919 137.943 40.8153L138.872 35.6365C139.388 32.5599 137.324 30.0474 134.228 30.0474ZM136.086 35.6365L135.157 40.8153C134.899 42.4049 133.351 43.6868 131.751 43.6868H129.946C128.346 43.6868 127.314 42.4049 127.572 40.8153L128.501 35.6365C128.759 34.0469 130.307 32.765 131.906 32.765H133.712C135.312 32.765 136.395 34.0982 136.086 35.6365Z" fill="white"/>
<path d="M134.228 30.0474H132.422C129.326 30.0474 126.334 32.5599 125.818 35.6365L124.889 40.8153C124.322 43.8919 126.437 46.4044 129.533 46.4044H131.339C134.434 46.4044 137.427 43.8919 137.943 40.8153L138.872 35.6365C139.388 32.5599 137.324 30.0474 134.228 30.0474ZM136.086 35.6365L135.157 40.8153C134.899 42.4049 133.351 43.6868 131.751 43.6868H129.946C128.346 43.6868 127.314 42.4049 127.572 40.8153L128.501 35.6365C128.759 34.0469 130.307 32.765 131.906 32.765H133.712C135.312 32.765 136.395 34.0982 136.086 35.6365Z" fill="url(#paint1_linear_2621_2)"/>
<path d="M119.574 30.0474H117.768C114.672 30.0474 111.68 32.5599 111.164 35.6365L110.235 40.8153C109.668 43.8919 111.783 46.4044 114.879 46.4044H116.685C118.026 46.4044 119.368 45.9429 120.503 45.1225C121.173 44.661 121.38 43.7893 121.019 43.2253C120.657 42.6613 119.78 42.5587 119.11 43.0715C118.542 43.4817 117.82 43.7381 117.149 43.7381H115.343C113.744 43.7381 112.712 42.4562 112.97 40.8666L113.021 40.4564C113.795 40.9692 114.724 41.2255 115.756 41.2255H117.562C120.657 41.2255 123.65 38.713 124.166 35.6365C124.682 32.5599 122.67 30.0474 119.574 30.0474ZM121.431 35.6365C121.173 37.226 119.626 38.5079 118.026 38.5079H116.22C114.621 38.5079 113.589 37.226 113.847 35.6365C114.105 34.0469 115.653 32.765 117.252 32.765H119.058C120.657 32.765 121.741 34.0982 121.431 35.6365Z" fill="white"/>
<path d="M119.574 30.0474H117.768C114.672 30.0474 111.68 32.5599 111.164 35.6365L110.235 40.8153C109.668 43.8919 111.783 46.4044 114.879 46.4044H116.685C118.026 46.4044 119.368 45.9429 120.503 45.1225C121.173 44.661 121.38 43.7893 121.019 43.2253C120.657 42.6613 119.78 42.5587 119.11 43.0715C118.542 43.4817 117.82 43.7381 117.149 43.7381H115.343C113.744 43.7381 112.712 42.4562 112.97 40.8666L113.021 40.4564C113.795 40.9692 114.724 41.2255 115.756 41.2255H117.562C120.657 41.2255 123.65 38.713 124.166 35.6365C124.682 32.5599 122.67 30.0474 119.574 30.0474ZM121.431 35.6365C121.173 37.226 119.626 38.5079 118.026 38.5079H116.22C114.621 38.5079 113.589 37.226 113.847 35.6365C114.105 34.0469 115.653 32.765 117.252 32.765H119.058C120.657 32.765 121.741 34.0982 121.431 35.6365Z" fill="url(#paint2_linear_2621_2)"/>
<path d="M89.5455 30.1502C88.8748 29.8425 88.0493 30.2014 87.6365 30.9193L81.445 41.4309L79.02 30.9193C78.8652 30.2014 78.1429 29.8938 77.369 30.1502C76.595 30.4578 76.1307 31.227 76.2855 31.9448L79.4328 45.5842C79.4328 45.6355 79.4844 45.6868 79.4844 45.7381C79.4844 45.7381 79.4844 45.7381 79.4844 45.7894C79.4844 45.8406 79.536 45.8919 79.5876 45.9432C79.6392 45.9945 79.6392 46.0457 79.6908 46.0457C79.6908 46.0457 79.6908 46.0457 79.6908 46.097C79.7424 46.1483 79.794 46.1483 79.794 46.1996C79.8456 46.2508 79.8971 46.2508 79.9487 46.3021C79.9487 46.3021 79.9487 46.3021 80.0003 46.3021H80.0519C80.1035 46.3021 80.1035 46.3534 80.1551 46.3534C80.2067 46.3534 80.2583 46.4047 80.3099 46.4047C80.3099 46.4047 80.3099 46.4047 80.3615 46.4047C80.4131 46.4047 80.4647 46.4047 80.5163 46.4047C80.5679 46.4047 80.6195 46.4047 80.7227 46.4047H80.7743C80.8259 46.4047 80.8775 46.4047 80.9807 46.3534C81.0323 46.3534 81.0839 46.3534 81.0839 46.3021H81.1354H81.187C81.2386 46.2508 81.2902 46.2508 81.3418 46.1996C81.3934 46.1483 81.445 46.1483 81.4966 46.097C81.4966 46.097 81.4966 46.097 81.5482 46.0457C81.5998 45.9945 81.6514 45.9432 81.703 45.9432C81.7546 45.8919 81.8062 45.8406 81.8578 45.7894C81.8578 45.7894 81.8578 45.7894 81.9094 45.7381C81.961 45.6868 82.0126 45.6355 82.0126 45.5842L90.0099 31.9448C90.3711 31.227 90.1647 30.4578 89.5455 30.1502Z" fill="white"/>
<path d="M89.5455 30.1502C88.8748 29.8425 88.0493 30.2014 87.6365 30.9193L81.445 41.4309L79.02 30.9193C78.8652 30.2014 78.1429 29.8938 77.369 30.1502C76.595 30.4578 76.1307 31.227 76.2855 31.9448L79.4328 45.5842C79.4328 45.6355 79.4844 45.6868 79.4844 45.7381C79.4844 45.7381 79.4844 45.7381 79.4844 45.7894C79.4844 45.8406 79.536 45.8919 79.5876 45.9432C79.6392 45.9945 79.6392 46.0457 79.6908 46.0457C79.6908 46.0457 79.6908 46.0457 79.6908 46.097C79.7424 46.1483 79.794 46.1483 79.794 46.1996C79.8456 46.2508 79.8971 46.2508 79.9487 46.3021C79.9487 46.3021 79.9487 46.3021 80.0003 46.3021H80.0519C80.1035 46.3021 80.1035 46.3534 80.1551 46.3534C80.2067 46.3534 80.2583 46.4047 80.3099 46.4047C80.3099 46.4047 80.3099 46.4047 80.3615 46.4047C80.4131 46.4047 80.4647 46.4047 80.5163 46.4047C80.5679 46.4047 80.6195 46.4047 80.7227 46.4047H80.7743C80.8259 46.4047 80.8775 46.4047 80.9807 46.3534C81.0323 46.3534 81.0839 46.3534 81.0839 46.3021H81.1354H81.187C81.2386 46.2508 81.2902 46.2508 81.3418 46.1996C81.3934 46.1483 81.445 46.1483 81.4966 46.097C81.4966 46.097 81.4966 46.097 81.5482 46.0457C81.5998 45.9945 81.6514 45.9432 81.703 45.9432C81.7546 45.8919 81.8062 45.8406 81.8578 45.7894C81.8578 45.7894 81.8578 45.7894 81.9094 45.7381C81.961 45.6868 82.0126 45.6355 82.0126 45.5842L90.0099 31.9448C90.3711 31.227 90.1647 30.4578 89.5455 30.1502Z" fill="url(#paint3_linear_2621_2)"/>
<path d="M92.3856 35.6367C91.6117 35.6367 90.8893 36.252 90.7861 37.0212L89.3415 45.0715C89.1867 45.8406 89.7026 46.456 90.4766 46.456C91.2505 46.456 91.9728 45.8406 92.076 45.0715L93.5207 37.0212C93.6755 36.252 93.1595 35.6367 92.3856 35.6367Z" fill="white"/>
<path d="M92.3856 35.6367C91.6117 35.6367 90.8893 36.252 90.7861 37.0212L89.3415 45.0715C89.1867 45.8406 89.7026 46.456 90.4766 46.456C91.2505 46.456 91.9728 45.8406 92.076 45.0715L93.5207 37.0212C93.6755 36.252 93.1595 35.6367 92.3856 35.6367Z" fill="url(#paint4_linear_2621_2)"/>
<path d="M93.4156 30.0474C92.6417 30.0474 91.9193 30.6627 91.8161 31.4318L91.5582 32.8675C91.4034 33.6367 91.9193 34.252 92.6933 34.252C93.4672 34.252 94.1895 33.6367 94.2927 32.8675L94.5507 31.4318C94.6539 30.6627 94.1379 30.0474 93.4156 30.0474Z" fill="white"/>
<path d="M93.4156 30.0474C92.6417 30.0474 91.9193 30.6627 91.8161 31.4318L91.5582 32.8675C91.4034 33.6367 91.9193 34.252 92.6933 34.252C93.4672 34.252 94.1895 33.6367 94.2927 32.8675L94.5507 31.4318C94.6539 30.6627 94.1379 30.0474 93.4156 30.0474Z" fill="url(#paint5_linear_2621_2)"/>
<path d="M11.1721 5.79443H9.36628C8.28277 5.79443 7.19926 6.10209 6.21894 6.66613C6.11575 6.15337 5.65139 5.79443 5.08384 5.79443C4.3099 5.79443 3.58756 6.40975 3.48437 7.17889L2.71044 11.3835L1.83331 16.5624L0.0274605 26.5612C-0.127327 27.3304 0.38863 27.9457 1.16257 27.9457C1.9365 27.9457 2.65884 27.3304 2.76203 26.5612L3.69075 21.3823C4.46469 21.8951 5.39341 22.1515 6.42532 22.1515H8.23117C11.3269 22.1515 14.3195 19.639 14.8354 16.5624L15.7641 11.3835C16.3317 8.25568 14.2679 5.79443 11.1721 5.79443ZM13.0296 11.3322L12.1009 16.5111C11.8429 18.1007 10.295 19.3826 8.69553 19.3826H6.88969C5.29022 19.3826 4.25831 18.1007 4.51628 16.5111L5.44501 11.3322C5.70299 9.74269 7.25086 8.46079 8.85032 8.46079H10.6562C12.2556 8.51206 13.3391 9.79396 13.0296 11.3322Z" fill="white"/>
<path d="M11.1721 5.79443H9.36628C8.28277 5.79443 7.19926 6.10209 6.21894 6.66613C6.11575 6.15337 5.65139 5.79443 5.08384 5.79443C4.3099 5.79443 3.58756 6.40975 3.48437 7.17889L2.71044 11.3835L1.83331 16.5624L0.0274605 26.5612C-0.127327 27.3304 0.38863 27.9457 1.16257 27.9457C1.9365 27.9457 2.65884 27.3304 2.76203 26.5612L3.69075 21.3823C4.46469 21.8951 5.39341 22.1515 6.42532 22.1515H8.23117C11.3269 22.1515 14.3195 19.639 14.8354 16.5624L15.7641 11.3835C16.3317 8.25568 14.2679 5.79443 11.1721 5.79443ZM13.0296 11.3322L12.1009 16.5111C11.8429 18.1007 10.295 19.3826 8.69553 19.3826H6.88969C5.29022 19.3826 4.25831 18.1007 4.51628 16.5111L5.44501 11.3322C5.70299 9.74269 7.25086 8.46079 8.85032 8.46079H10.6562C12.2556 8.51206 13.3391 9.79396 13.0296 11.3322Z" fill="url(#paint6_linear_2621_2)"/>
<path d="M62.0449 0C61.2709 0 60.5486 0.615312 60.4454 1.38445L59.5167 6.56333C58.7428 6.05057 57.814 5.79419 56.7821 5.79419H54.9763C51.8805 5.79419 48.888 8.30672 48.372 11.3833L47.4433 16.5622C46.8758 19.6387 48.9912 22.1512 52.0869 22.1512H53.8928C54.9763 22.1512 56.0598 21.8436 57.0401 21.2795C57.1433 21.7923 57.6076 22.1512 58.1752 22.1512C58.9491 22.1512 59.6715 21.5359 59.7747 20.7668L60.5486 16.5622L61.4773 11.3833L63.2316 1.38445C63.3348 0.615312 62.8188 0 62.0449 0ZM58.6396 11.332L57.7108 16.5109C57.4529 18.1004 55.905 19.3823 54.3055 19.3823H52.4997C50.9002 19.3823 49.8683 18.1004 50.1263 16.5109L51.1066 11.332C51.3646 9.74244 52.9124 8.46054 54.5119 8.46054H56.3178C57.8656 8.51182 58.9491 9.79372 58.6396 11.332Z" fill="white"/>
<path d="M62.0449 0C61.2709 0 60.5486 0.615312 60.4454 1.38445L59.5167 6.56333C58.7428 6.05057 57.814 5.79419 56.7821 5.79419H54.9763C51.8805 5.79419 48.888 8.30672 48.372 11.3833L47.4433 16.5622C46.8758 19.6387 48.9912 22.1512 52.0869 22.1512H53.8928C54.9763 22.1512 56.0598 21.8436 57.0401 21.2795C57.1433 21.7923 57.6076 22.1512 58.1752 22.1512C58.9491 22.1512 59.6715 21.5359 59.7747 20.7668L60.5486 16.5622L61.4773 11.3833L63.2316 1.38445C63.3348 0.615312 62.8188 0 62.0449 0ZM58.6396 11.332L57.7108 16.5109C57.4529 18.1004 55.905 19.3823 54.3055 19.3823H52.4997C50.9002 19.3823 49.8683 18.1004 50.1263 16.5109L51.1066 11.332C51.3646 9.74244 52.9124 8.46054 54.5119 8.46054H56.3178C57.8656 8.51182 58.9491 9.79372 58.6396 11.332Z" fill="url(#paint7_linear_2621_2)"/>
<path d="M41.561 5.79443H39.7551C36.6594 5.79443 33.6668 8.30696 33.1509 11.3835L32.2222 16.5624C31.6546 19.639 33.77 22.1515 36.8658 22.1515H38.6716C41.7674 22.1515 44.7599 19.639 45.2759 16.5624L46.2046 11.3835C46.7206 8.25568 44.6567 5.79443 41.561 5.79443ZM43.47 11.3322L42.5413 16.5111C42.2833 18.1007 40.7355 19.3826 39.136 19.3826H37.3301C35.7307 19.3826 34.6988 18.1007 34.9567 16.5111L35.8855 11.3322C36.1434 9.74269 37.6913 8.46079 39.2908 8.46079H41.0966C42.6445 8.51206 43.728 9.79396 43.47 11.3322Z" fill="white"/>
<path d="M41.561 5.79443H39.7551C36.6594 5.79443 33.6668 8.30696 33.1509 11.3835L32.2222 16.5624C31.6546 19.639 33.77 22.1515 36.8658 22.1515H38.6716C41.7674 22.1515 44.7599 19.639 45.2759 16.5624L46.2046 11.3835C46.7206 8.25568 44.6567 5.79443 41.561 5.79443ZM43.47 11.3322L42.5413 16.5111C42.2833 18.1007 40.7355 19.3826 39.136 19.3826H37.3301C35.7307 19.3826 34.6988 18.1007 34.9567 16.5111L35.8855 11.3322C36.1434 9.74269 37.6913 8.46079 39.2908 8.46079H41.0966C42.6445 8.51206 43.728 9.79396 43.47 11.3322Z" fill="url(#paint8_linear_2621_2)"/>
<path d="M26.343 5.79443H24.5372C23.4537 5.79443 22.3702 6.10209 21.3899 6.66613C21.2867 6.15337 20.8223 5.79443 20.2547 5.79443C19.4808 5.79443 18.7585 6.40975 18.6553 7.17889L16.2303 20.8183C16.0755 21.5874 16.5914 22.2028 17.3654 22.2028C18.1393 22.2028 18.8617 21.5874 18.9649 20.8183L20.6159 11.3835C20.8739 9.79396 22.4218 8.51206 24.0212 8.51206H25.8271C27.4265 8.51206 28.4585 9.79396 28.2005 11.3835C28.0457 12.1527 28.5616 12.768 29.3356 12.768C30.1095 12.768 30.8319 12.1527 30.9351 11.3835C31.5542 8.25568 29.4388 5.79443 26.343 5.79443Z" fill="white"/>
<path d="M26.343 5.79443H24.5372C23.4537 5.79443 22.3702 6.10209 21.3899 6.66613C21.2867 6.15337 20.8223 5.79443 20.2547 5.79443C19.4808 5.79443 18.7585 6.40975 18.6553 7.17889L16.2303 20.8183C16.0755 21.5874 16.5914 22.2028 17.3654 22.2028C18.1393 22.2028 18.8617 21.5874 18.9649 20.8183L20.6159 11.3835C20.8739 9.79396 22.4218 8.51206 24.0212 8.51206H25.8271C27.4265 8.51206 28.4585 9.79396 28.2005 11.3835C28.0457 12.1527 28.5616 12.768 29.3356 12.768C30.1095 12.768 30.8319 12.1527 30.9351 11.3835C31.5542 8.25568 29.4388 5.79443 26.343 5.79443Z" fill="url(#paint9_linear_2621_2)"/>
<path d="M103.428 22.1515H105.749C106.523 22.1515 107.143 21.5362 107.143 20.767C107.143 19.9979 106.523 19.3826 105.749 19.3826C105.749 19.3826 105.749 19.3826 105.698 19.3826H103.892C102.293 19.3826 101.261 18.1007 101.519 16.5111L101.57 16.1009C102.344 16.6137 103.273 16.8701 104.305 16.8701H106.111C109.206 16.8701 112.199 14.3575 112.715 11.281C113.282 8.20442 111.167 5.69189 108.071 5.69189H106.265C103.17 5.69189 100.177 8.20442 99.6611 11.281L98.7324 16.4599C98.2681 19.639 100.332 22.1515 103.428 22.1515ZM102.499 11.3323C102.757 9.7427 104.305 8.4608 105.904 8.4608H107.71C109.31 8.4608 110.341 9.7427 110.083 11.3323C109.825 12.9218 108.278 14.2037 106.678 14.2037H104.872C103.273 14.2037 102.189 12.9218 102.499 11.3323Z" fill="white"/>
<path d="M103.428 22.1515H105.749C106.523 22.1515 107.143 21.5362 107.143 20.767C107.143 19.9979 106.523 19.3826 105.749 19.3826C105.749 19.3826 105.749 19.3826 105.698 19.3826H103.892C102.293 19.3826 101.261 18.1007 101.519 16.5111L101.57 16.1009C102.344 16.6137 103.273 16.8701 104.305 16.8701H106.111C109.206 16.8701 112.199 14.3575 112.715 11.281C113.282 8.20442 111.167 5.69189 108.071 5.69189H106.265C103.17 5.69189 100.177 8.20442 99.6611 11.281L98.7324 16.4599C98.2681 19.639 100.332 22.1515 103.428 22.1515ZM102.499 11.3323C102.757 9.7427 104.305 8.4608 105.904 8.4608H107.71C109.31 8.4608 110.341 9.7427 110.083 11.3323C109.825 12.9218 108.278 14.2037 106.678 14.2037H104.872C103.273 14.2037 102.189 12.9218 102.499 11.3323Z" fill="url(#paint10_linear_2621_2)"/>
<path d="M83.4058 22.151C84.1798 22.151 84.9021 21.5357 85.0053 20.7665L86.6564 11.3318C86.9143 9.74221 88.4622 8.4603 90.0617 8.4603H91.8675C93.467 8.4603 94.4989 9.74221 94.2409 11.3318L92.5899 20.7665C92.4351 21.5357 92.951 22.151 93.725 22.151C94.4989 22.151 95.2212 21.5357 95.3244 20.7665L96.9755 11.3318C97.543 8.2552 95.4276 5.74268 92.3319 5.74268H90.526C89.4425 5.74268 88.359 6.05033 87.3787 6.61437C87.2755 6.10161 86.8111 5.74268 86.2436 5.74268C85.4697 5.74268 84.7473 6.35799 84.6441 7.12713L82.2191 20.7665C82.1675 21.5357 82.6835 22.151 83.4058 22.151Z" fill="white"/>
<path d="M83.4058 22.151C84.1798 22.151 84.9021 21.5357 85.0053 20.7665L86.6564 11.3318C86.9143 9.74221 88.4622 8.4603 90.0617 8.4603H91.8675C93.467 8.4603 94.4989 9.74221 94.2409 11.3318L92.5899 20.7665C92.4351 21.5357 92.951 22.151 93.725 22.151C94.4989 22.151 95.2212 21.5357 95.3244 20.7665L96.9755 11.3318C97.543 8.2552 95.4276 5.74268 92.3319 5.74268H90.526C89.4425 5.74268 88.359 6.05033 87.3787 6.61437C87.2755 6.10161 86.8111 5.74268 86.2436 5.74268C85.4697 5.74268 84.7473 6.35799 84.6441 7.12713L82.2191 20.7665C82.1675 21.5357 82.6835 22.151 83.4058 22.151Z" fill="url(#paint11_linear_2621_2)"/>
<path d="M126.281 20.7665L127.933 11.3318C128.19 9.74221 129.738 8.4603 131.338 8.4603H133.144C134.743 8.4603 135.775 9.74221 135.517 11.3318L133.866 20.7665C133.711 21.5357 134.227 22.151 135.001 22.151C135.775 22.151 136.497 21.5357 136.601 20.7665L138.252 11.3318C138.819 8.2552 136.704 5.74268 133.608 5.74268H131.802C130.1 5.74268 128.448 6.51182 127.21 7.69116C126.385 6.51182 124.992 5.74268 123.289 5.74268H121.483C120.4 5.74268 119.316 6.05033 118.336 6.61437C118.233 6.10161 117.768 5.74268 117.201 5.74268C116.427 5.74268 115.704 6.35799 115.601 7.12713L113.176 20.7665C113.021 21.5357 113.537 22.151 114.311 22.151C115.085 22.151 115.808 21.5357 115.911 20.7665L117.562 11.3318C117.82 9.74221 119.368 8.4603 120.967 8.4603H122.773C124.372 8.4603 125.404 9.74221 125.146 11.3318L123.495 20.7665C123.34 21.5357 123.856 22.151 124.63 22.151C125.456 22.151 126.178 21.5357 126.281 20.7665Z" fill="white"/>
<path d="M126.281 20.7665L127.933 11.3318C128.19 9.74221 129.738 8.4603 131.338 8.4603H133.144C134.743 8.4603 135.775 9.74221 135.517 11.3318L133.866 20.7665C133.711 21.5357 134.227 22.151 135.001 22.151C135.775 22.151 136.497 21.5357 136.601 20.7665L138.252 11.3318C138.819 8.2552 136.704 5.74268 133.608 5.74268H131.802C130.1 5.74268 128.448 6.51182 127.21 7.69116C126.385 6.51182 124.992 5.74268 123.289 5.74268H121.483C120.4 5.74268 119.316 6.05033 118.336 6.61437C118.233 6.10161 117.768 5.74268 117.201 5.74268C116.427 5.74268 115.704 6.35799 115.601 7.12713L113.176 20.7665C113.021 21.5357 113.537 22.151 114.311 22.151C115.085 22.151 115.808 21.5357 115.911 20.7665L117.562 11.3318C117.82 9.74221 119.368 8.4603 120.967 8.4603H122.773C124.372 8.4603 125.404 9.74221 125.146 11.3318L123.495 20.7665C123.34 21.5357 123.856 22.151 124.63 22.151C125.456 22.151 126.178 21.5357 126.281 20.7665Z" fill="url(#paint12_linear_2621_2)"/>
<path d="M77.0096 5.84548C76.3388 5.53782 75.5133 5.89676 75.1005 6.61462L68.909 17.1262L66.484 6.61462C66.3293 5.89676 65.6069 5.5891 64.833 5.84548C64.059 6.15314 63.5947 6.92228 63.7495 7.64014L66.8968 21.2796C66.8968 21.3308 66.9484 21.3821 66.9484 21.4334C66.9484 21.4334 66.9484 21.4334 66.9484 21.4847C66.9484 21.5359 67 21.5872 67.0516 21.6385C67.1032 21.6898 67.1032 21.741 67.1548 21.741C67.1548 21.741 67.1548 21.741 67.1548 21.7923C67.2064 21.8436 67.258 21.8436 67.258 21.8949C67.3096 21.9461 67.3612 21.9461 67.4128 21.9974C67.4128 21.9974 67.4128 21.9974 67.4644 21.9974H67.516C67.5676 21.9974 67.5676 22.0487 67.6192 22.0487C67.6707 22.0487 67.7223 22.1 67.7739 22.1C67.7739 22.1 67.7739 22.1 67.8255 22.1C67.8771 22.1 67.9287 22.1 67.9803 22.1C68.0319 22.1 68.0835 22.1 68.1867 22.1H68.2383C68.2899 22.1 68.3415 22.1 68.4447 22.0487C68.4963 22.0487 68.5479 22.0487 68.5479 21.9974H68.5995H68.6511C68.7027 21.9461 68.7543 21.9461 68.8059 21.8949C68.8575 21.8436 68.909 21.8436 68.9606 21.7923C68.9606 21.7923 68.9606 21.7923 69.0122 21.741C69.0638 21.6898 69.1154 21.6385 69.167 21.6385C69.2186 21.5872 69.2702 21.5359 69.3218 21.4847C69.3218 21.4847 69.3218 21.4847 69.3734 21.4334C69.425 21.3821 69.4766 21.3308 69.4766 21.2796L77.4739 7.64014C77.8867 6.97355 77.6803 6.15314 77.0096 5.84548Z" fill="white"/>
<path d="M77.0096 5.84548C76.3388 5.53782 75.5133 5.89676 75.1005 6.61462L68.909 17.1262L66.484 6.61462C66.3293 5.89676 65.6069 5.5891 64.833 5.84548C64.059 6.15314 63.5947 6.92228 63.7495 7.64014L66.8968 21.2796C66.8968 21.3308 66.9484 21.3821 66.9484 21.4334C66.9484 21.4334 66.9484 21.4334 66.9484 21.4847C66.9484 21.5359 67 21.5872 67.0516 21.6385C67.1032 21.6898 67.1032 21.741 67.1548 21.741C67.1548 21.741 67.1548 21.741 67.1548 21.7923C67.2064 21.8436 67.258 21.8436 67.258 21.8949C67.3096 21.9461 67.3612 21.9461 67.4128 21.9974C67.4128 21.9974 67.4128 21.9974 67.4644 21.9974H67.516C67.5676 21.9974 67.5676 22.0487 67.6192 22.0487C67.6707 22.0487 67.7223 22.1 67.7739 22.1C67.7739 22.1 67.7739 22.1 67.8255 22.1C67.8771 22.1 67.9287 22.1 67.9803 22.1C68.0319 22.1 68.0835 22.1 68.1867 22.1H68.2383C68.2899 22.1 68.3415 22.1 68.4447 22.0487C68.4963 22.0487 68.5479 22.0487 68.5479 21.9974H68.5995H68.6511C68.7027 21.9461 68.7543 21.9461 68.8059 21.8949C68.8575 21.8436 68.909 21.8436 68.9606 21.7923C68.9606 21.7923 68.9606 21.7923 69.0122 21.741C69.0638 21.6898 69.1154 21.6385 69.167 21.6385C69.2186 21.5872 69.2702 21.5359 69.3218 21.4847C69.3218 21.4847 69.3218 21.4847 69.3734 21.4334C69.425 21.3821 69.4766 21.3308 69.4766 21.2796L77.4739 7.64014C77.8867 6.97355 77.6803 6.15314 77.0096 5.84548Z" fill="url(#paint13_linear_2621_2)"/>
<path d="M77.9877 22.1509C78.7616 22.1509 79.4839 21.5355 79.5871 20.7664L81.135 12.152C81.2898 11.3829 80.7738 10.7676 79.9999 10.7676C79.226 10.7676 78.5036 11.3829 78.4004 12.152L76.8526 20.7664C76.6978 21.5355 77.2137 22.1509 77.9877 22.1509Z" fill="white"/>
<path d="M77.9877 22.1509C78.7616 22.1509 79.4839 21.5355 79.5871 20.7664L81.135 12.152C81.2898 11.3829 80.7738 10.7676 79.9999 10.7676C79.226 10.7676 78.5036 11.3829 78.4004 12.152L76.8526 20.7664C76.6978 21.5355 77.2137 22.1509 77.9877 22.1509Z" fill="url(#paint14_linear_2621_2)"/>
<path d="M80.1551 9.89653C80.929 9.89653 81.6513 9.28122 81.7545 8.51208L82.0125 7.07635C82.1673 6.30721 81.6513 5.69189 80.8774 5.69189C80.1035 5.69189 79.3811 6.30721 79.2779 7.07635L79.02 8.51208C78.8652 9.33249 79.3811 9.89653 80.1551 9.89653Z" fill="white"/>
<path d="M80.1551 9.89653C80.929 9.89653 81.6513 9.28122 81.7545 8.51208L82.0125 7.07635C82.1673 6.30721 81.6513 5.69189 80.8774 5.69189C80.1035 5.69189 79.3811 6.30721 79.2779 7.07635L79.02 8.51208C78.8652 9.33249 79.3811 9.89653 80.1551 9.89653Z" fill="url(#paint15_linear_2621_2)"/>
<path d="M141.399 20.2544C141.399 20.1518 141.347 20.1006 141.296 19.998C141.244 19.9467 141.193 19.8442 141.141 19.7929C141.089 19.7416 141.038 19.6903 140.986 19.6391C140.935 19.5878 140.831 19.5365 140.78 19.5365C140.728 19.4852 140.625 19.4852 140.522 19.434C140.367 19.3827 140.161 19.3827 140.006 19.434C139.903 19.434 139.799 19.4852 139.748 19.5365C139.645 19.5878 139.593 19.5878 139.49 19.6391C139.387 19.6903 139.335 19.7416 139.232 19.7929C139.18 19.8442 139.077 19.9467 139.026 19.998C138.974 20.0493 138.922 20.1518 138.871 20.2544C138.819 20.3569 138.768 20.4082 138.768 20.5108C138.716 20.6133 138.716 20.6646 138.716 20.7671C138.716 20.8697 138.716 20.921 138.716 21.0235C138.716 21.1261 138.716 21.1773 138.768 21.2799C138.768 21.3825 138.819 21.4337 138.871 21.5363C138.922 21.5876 138.974 21.6901 139.026 21.7414C139.077 21.7927 139.129 21.8439 139.18 21.8952C139.232 21.9465 139.335 21.9978 139.387 21.9978C139.438 22.049 139.541 22.049 139.645 22.1003C139.748 22.1003 139.799 22.1516 139.903 22.1516C140.264 22.1516 140.625 21.9978 140.935 21.7414C140.986 21.6901 141.089 21.5876 141.141 21.5363C141.193 21.485 141.244 21.3825 141.296 21.2799C141.347 21.1773 141.399 21.1261 141.399 21.0235C141.451 20.921 141.451 20.8697 141.451 20.7671C141.451 20.6646 141.451 20.6133 141.451 20.5108C141.451 20.4082 141.451 20.3569 141.399 20.2544Z" fill="white"/>
<path d="M141.399 20.2544C141.399 20.1518 141.347 20.1006 141.296 19.998C141.244 19.9467 141.193 19.8442 141.141 19.7929C141.089 19.7416 141.038 19.6903 140.986 19.6391C140.935 19.5878 140.831 19.5365 140.78 19.5365C140.728 19.4852 140.625 19.4852 140.522 19.434C140.367 19.3827 140.161 19.3827 140.006 19.434C139.903 19.434 139.799 19.4852 139.748 19.5365C139.645 19.5878 139.593 19.5878 139.49 19.6391C139.387 19.6903 139.335 19.7416 139.232 19.7929C139.18 19.8442 139.077 19.9467 139.026 19.998C138.974 20.0493 138.922 20.1518 138.871 20.2544C138.819 20.3569 138.768 20.4082 138.768 20.5108C138.716 20.6133 138.716 20.6646 138.716 20.7671C138.716 20.8697 138.716 20.921 138.716 21.0235C138.716 21.1261 138.716 21.1773 138.768 21.2799C138.768 21.3825 138.819 21.4337 138.871 21.5363C138.922 21.5876 138.974 21.6901 139.026 21.7414C139.077 21.7927 139.129 21.8439 139.18 21.8952C139.232 21.9465 139.335 21.9978 139.387 21.9978C139.438 22.049 139.541 22.049 139.645 22.1003C139.748 22.1003 139.799 22.1516 139.903 22.1516C140.264 22.1516 140.625 21.9978 140.935 21.7414C140.986 21.6901 141.089 21.5876 141.141 21.5363C141.193 21.485 141.244 21.3825 141.296 21.2799C141.347 21.1773 141.399 21.1261 141.399 21.0235C141.451 20.921 141.451 20.8697 141.451 20.7671C141.451 20.6646 141.451 20.6133 141.451 20.5108C141.451 20.4082 141.451 20.3569 141.399 20.2544Z" fill="url(#paint16_linear_2621_2)"/>
<path opacity="0.3" d="M154.051 48.4046C152.761 48.4046 151.574 48.0456 150.594 47.4303C148.582 46.1484 147.653 43.841 148.118 41.2259L153.484 11.1269C153.948 8.5631 155.702 6.25568 158.127 4.97378C160.604 3.69188 163.287 3.6406 165.299 4.9225L189.652 19.9976C191.716 21.2795 192.696 23.6382 192.232 26.2533C191.768 28.8684 189.962 31.2271 187.433 32.509L157.714 47.5329C156.579 48.0969 155.289 48.4046 154.051 48.4046ZM161.378 7.2812C160.707 7.2812 159.985 7.43502 159.314 7.79396C157.972 8.51182 157.044 9.74244 156.837 11.1269L151.471 41.2259C151.213 42.6104 151.729 43.841 152.813 44.5589C153.329 44.9178 153.999 45.0716 154.67 45.0716C155.341 45.0716 156.012 44.9178 156.631 44.5589L186.35 29.535C187.691 28.8684 188.672 27.5865 188.93 26.202C189.188 24.8176 188.672 23.5357 187.537 22.8691L163.235 7.79396C162.668 7.43502 162.048 7.2812 161.378 7.2812Z" fill="url(#paint17_linear_2621_2)"/>
<path opacity="0.6" d="M157.406 48.4046C156.116 48.4046 154.929 48.0456 153.949 47.4303C151.937 46.1484 151.008 43.841 151.472 41.2259L156.838 11.1269C157.303 8.5631 159.057 6.25568 161.482 4.97378C163.958 3.69188 166.641 3.6406 168.654 4.9225L193.007 19.9976C195.071 21.2795 196.051 23.6382 195.587 26.2533C195.122 28.8684 193.316 31.2271 190.788 32.509L161.069 47.5329C159.882 48.0969 158.593 48.4046 157.406 48.4046ZM164.732 7.2812C164.062 7.2812 163.339 7.43502 162.669 7.79396C161.327 8.51182 160.398 9.74244 160.192 11.1269L154.826 41.2259C154.568 42.6104 155.084 43.841 156.168 44.5589C156.683 44.9178 157.354 45.0716 158.025 45.0716C158.696 45.0716 159.366 44.9178 159.986 44.5589L189.705 29.535C191.046 28.8684 192.027 27.5865 192.284 26.202C192.542 24.8176 192.027 23.5357 190.891 22.8691L166.59 7.79396C166.022 7.43502 165.403 7.2812 164.732 7.2812Z" fill="url(#paint18_linear_2621_2)"/>
<path d="M160.759 48.4046C159.469 48.4046 158.282 48.0456 157.302 47.4303C155.29 46.1484 154.361 43.841 154.825 41.2259L160.191 11.1269C160.656 8.5631 162.41 6.25568 164.835 4.97378C167.312 3.69188 169.995 3.6406 172.007 4.9225L196.36 19.9976C198.424 21.2795 199.404 23.6382 198.94 26.2533C198.475 28.8684 196.669 31.2271 194.141 32.509L164.422 47.5329C163.235 48.0969 161.946 48.4046 160.759 48.4046ZM168.085 7.2812C167.415 7.2812 166.692 7.43502 166.022 7.79396C164.68 8.51182 163.751 9.74244 163.545 11.1269L158.179 41.2259C157.921 42.6104 158.437 43.841 159.521 44.5589C160.037 44.9178 160.707 45.0716 161.378 45.0716C162.049 45.0716 162.72 44.9178 163.339 44.5589L193.058 29.535C194.399 28.8684 195.38 27.5865 195.638 26.202C195.896 24.8176 195.38 23.5357 194.244 22.8691L169.943 7.79396C169.324 7.43502 168.705 7.2812 168.085 7.2812Z" fill="url(#paint19_linear_2621_2)"/>
<defs>
<linearGradient id="paint0_linear_2621_2" x1="89.0376" y1="-7.12612" x2="111.673" y2="-0.0987174" gradientUnits="userSpaceOnUse">
<stop stop-color="white"/>
<stop offset="1" stop-color="white" stop-opacity="0"/>
</linearGradient>
<linearGradient id="paint1_linear_2621_2" x1="119.555" y1="6.83803" x2="138.938" y2="14.0952" gradientUnits="userSpaceOnUse">
<stop stop-color="white"/>
<stop offset="1" stop-color="white" stop-opacity="0"/>
</linearGradient>
<linearGradient id="paint2_linear_2621_2" x1="104.919" y1="6.83803" x2="124.251" y2="14.0503" gradientUnits="userSpaceOnUse">
<stop stop-color="white"/>
<stop offset="1" stop-color="white" stop-opacity="0"/>
</linearGradient>
<linearGradient id="paint3_linear_2621_2" x1="71.0959" y1="6.81878" x2="90.2506" y2="13.8747" gradientUnits="userSpaceOnUse">
<stop stop-color="white"/>
<stop offset="1" stop-color="white" stop-opacity="0"/>
</linearGradient>
<linearGradient id="paint4_linear_2621_2" x1="87.7458" y1="20.2851" x2="94.1729" y2="21.3735" gradientUnits="userSpaceOnUse">
<stop stop-color="white"/>
<stop offset="1" stop-color="white" stop-opacity="0"/>
</linearGradient>
<linearGradient id="paint5_linear_2621_2" x1="90.4073" y1="24.0813" x2="94.723" y2="25.4284" gradientUnits="userSpaceOnUse">
<stop stop-color="white"/>
<stop offset="1" stop-color="white" stop-opacity="0"/>
</linearGradient>
<linearGradient id="paint6_linear_2621_2" x1="-5.87336" y1="-25.6364" x2="16.7202" y2="-18.6376" gradientUnits="userSpaceOnUse">
<stop stop-color="white"/>
<stop offset="1" stop-color="white" stop-opacity="0"/>
</linearGradient>
<linearGradient id="paint7_linear_2621_2" x1="41.4646" y1="-31.4308" x2="64.0999" y2="-24.4034" gradientUnits="userSpaceOnUse">
<stop stop-color="white"/>
<stop offset="1" stop-color="white" stop-opacity="0"/>
</linearGradient>
<linearGradient id="paint8_linear_2621_2" x1="26.8879" y1="-17.4149" x2="46.2709" y2="-10.1577" gradientUnits="userSpaceOnUse">
<stop stop-color="white"/>
<stop offset="1" stop-color="white" stop-opacity="0"/>
</linearGradient>
<linearGradient id="paint9_linear_2621_2" x1="10.7065" y1="-17.4876" x2="30.8011" y2="-9.62379" gradientUnits="userSpaceOnUse">
<stop stop-color="white"/>
<stop offset="1" stop-color="white" stop-opacity="0"/>
</linearGradient>
<linearGradient id="paint10_linear_2621_2" x1="93.4303" y1="-17.6629" x2="112.829" y2="-10.4523" gradientUnits="userSpaceOnUse">
<stop stop-color="white"/>
<stop offset="1" stop-color="white" stop-opacity="0"/>
</linearGradient>
<linearGradient id="paint11_linear_2621_2" x1="76.7148" y1="-17.5394" x2="96.8213" y2="-9.66451" gradientUnits="userSpaceOnUse">
<stop stop-color="white"/>
<stop offset="1" stop-color="white" stop-opacity="0"/>
</linearGradient>
<linearGradient id="paint12_linear_2621_2" x1="103.817" y1="-17.5394" x2="131.11" y2="0.594249" gradientUnits="userSpaceOnUse">
<stop stop-color="white"/>
<stop offset="1" stop-color="white" stop-opacity="0"/>
</linearGradient>
<linearGradient id="paint13_linear_2621_2" x1="58.547" y1="-17.4859" x2="77.7381" y2="-10.399" gradientUnits="userSpaceOnUse">
<stop stop-color="white"/>
<stop offset="1" stop-color="white" stop-opacity="0"/>
</linearGradient>
<linearGradient id="paint14_linear_2621_2" x1="75.2187" y1="-5.38437" x2="81.812" y2="-4.29731" gradientUnits="userSpaceOnUse">
<stop stop-color="white"/>
<stop offset="1" stop-color="white" stop-opacity="0"/>
</linearGradient>
<linearGradient id="paint15_linear_2621_2" x1="77.8638" y1="-0.274138" x2="82.1962" y2="1.08455" gradientUnits="userSpaceOnUse">
<stop stop-color="white"/>
<stop offset="1" stop-color="white" stop-opacity="0"/>
</linearGradient>
<linearGradient id="paint16_linear_2621_2" x1="137.703" y1="15.4848" x2="141.309" y2="17.0327" gradientUnits="userSpaceOnUse">
<stop stop-color="white"/>
<stop offset="1" stop-color="white" stop-opacity="0"/>
</linearGradient>
<linearGradient id="paint17_linear_2621_2" x1="193.066" y1="3.10261" x2="139.734" y2="44.7585" gradientUnits="userSpaceOnUse">
<stop stop-color="#FF0067"/>
<stop offset="1" stop-color="#FF3248"/>
</linearGradient>
<linearGradient id="paint18_linear_2621_2" x1="194.319" y1="4.70524" x2="140.987" y2="46.3611" gradientUnits="userSpaceOnUse">
<stop stop-color="#FF0067"/>
<stop offset="1" stop-color="#FF3248"/>
</linearGradient>
<linearGradient id="paint19_linear_2621_2" x1="195.571" y1="6.30931" x2="142.239" y2="47.9652" gradientUnits="userSpaceOnUse">
<stop stop-color="#FF0067"/>
<stop offset="1" stop-color="#FF3248"/>
</linearGradient>
</defs>
</svg>
