<svg width="14" height="14" viewBox="0 0 14 14" fill="none" xmlns="http://www.w3.org/2000/svg">
<path d="M7 0C3.13409 0 0 3.13409 0 7C0 10.8659 3.13409 14 7 14C10.8659 14 14 10.8659 14 7C14 3.13409 10.8659 0 7 0ZM10.9499 5.67254L6.27009 10.3524C6.146 10.4765 5.94427 10.4765 5.82018 10.3524L3.04945 7.58164C2.926 7.45755 2.926 7.25582 3.05009 7.13173L3.94991 6.23191C4.074 6.10782 4.27573 6.10782 4.39982 6.23191L6.04545 7.87755L9.60018 4.32282C9.72427 4.19873 9.926 4.19873 10.0501 4.32282L10.9499 5.22264C11.074 5.34673 11.074 5.54845 10.9499 5.67254Z" fill="#AAAAAA"/>
</svg>
